STARTFONT 2.1
FONT -Adobe-Utopia-Regular-I-Normal--14-100-100-100-P-74-ISO10646-1
SIZE 10 100 100
FONTBOUNDINGBOX 19 24 -2 -6
COMMENT $Xorg: $
COMMENT ISO10646-1 extension by Markus Kuhn <mkuhn@acm.org>, 2001-03-20
STARTPROPERTIES 28
FOUNDRY "Adobe"
FAMILY_NAME "Utopia"
WEIGHT_NAME "Regular"
SLANT "I"
SETWIDTH_NAME "Normal"
ADD_STYLE_NAME ""
PIXEL_SIZE 14
POINT_SIZE 100
RESOLUTION_X 100
RESOLUTION_Y 100
SPACING "P"
AVERAGE_WIDTH 74
CHARSET_REGISTRY "ISO10646"
CHARSET_ENCODING "1"
CAP_HEIGHT 10
X_HEIGHT 7
RELATIVE_SETWIDTH 50
RELATIVE_WEIGHT 50
WEIGHT 130
FACE_NAME "Utopia Italic"
COPYRIGHT "Copyright (c) 1989, 1991 Adobe Systems Incorporated.  All Rights Reserved."
NOTICE "Utopia is a registered trademark of Adobe Systems Incorporated."
DESTINATION 0
FONT_ASCENT 13
FONT_DESCENT 4
DEFAULT_CHAR 0
_ADOBE_PSFONT "Utopia-Italic"
_DEC_DEVICE_FONTNAMES "PS=Utopia-Italic"
ENDPROPERTIES
CHARS 723
STARTCHAR char0
ENCODING 0
SWIDTH 775 0
DWIDTH 11 0
BBX 11 9 0 0
BITMAP
AAA0
0000
8020
0000
8020
0000
8020
0000
AAA0
ENDCHAR
STARTCHAR space
ENCODING 32
SWIDTH 225 0
DWIDTH 3 0
BBX 0 0 0 0
BITMAP
ENDCHAR
STARTCHAR exclam
ENCODING 33
SWIDTH 240 0
DWIDTH 3 0
BBX 4 10 1 0
BITMAP
10
20
20
20
20
40
40
00
40
C0
ENDCHAR
STARTCHAR quotedbl
ENCODING 34
SWIDTH 402 0
DWIDTH 6 0
BBX 4 4 3 6
BITMAP
90
A0
A0
A0
ENDCHAR
STARTCHAR numbersign
ENCODING 35
SWIDTH 530 0
DWIDTH 7 0
BBX 7 10 1 0
BITMAP
12
14
24
7E
28
28
FC
48
50
90
ENDCHAR
STARTCHAR dollar
ENCODING 36
SWIDTH 530 0
DWIDTH 7 0
BBX 7 11 1 -1
BITMAP
08
1C
6A
4A
30
18
14
A4
AC
70
20
ENDCHAR
STARTCHAR percent
ENCODING 37
SWIDTH 826 0
DWIDTH 11 0
BBX 9 11 2 -1
BITMAP
0180
3E00
5200
9400
9400
6900
1280
2480
4480
8300
8000
ENDCHAR
STARTCHAR ampersand
ENCODING 38
SWIDTH 725 0
DWIDTH 10 0
BBX 10 9 1 0
BITMAP
1C00
2200
2480
28C0
7880
8D00
8600
8700
7880
ENDCHAR
STARTCHAR quotesingle
ENCODING 39
SWIDTH 216 0
DWIDTH 3 0
BBX 1 4 3 6
BITMAP
80
80
80
80
ENDCHAR
STARTCHAR parenleft
ENCODING 40
SWIDTH 350 0
DWIDTH 5 0
BBX 5 12 2 -2
BITMAP
08
30
20
40
40
80
80
80
80
80
80
40
ENDCHAR
STARTCHAR parenright
ENCODING 41
SWIDTH 350 0
DWIDTH 5 0
BBX 5 12 0 -2
BITMAP
20
10
08
08
08
08
08
10
10
20
60
80
ENDCHAR
STARTCHAR asterisk
ENCODING 42
SWIDTH 412 0
DWIDTH 6 0
BBX 5 5 2 5
BITMAP
20
78
60
B0
00
ENDCHAR
STARTCHAR plus
ENCODING 43
SWIDTH 570 0
DWIDTH 8 0
BBX 7 7 1 0
BITMAP
10
10
10
FE
10
10
10
ENDCHAR
STARTCHAR comma
ENCODING 44
SWIDTH 265 0
DWIDTH 4 0
BBX 2 4 1 -2
BITMAP
40
40
40
80
ENDCHAR
STARTCHAR hyphen
ENCODING 45
SWIDTH 392 0
DWIDTH 5 0
BBX 4 1 1 3
BITMAP
F0
ENDCHAR
STARTCHAR period
ENCODING 46
SWIDTH 265 0
DWIDTH 4 0
BBX 1 1 1 0
BITMAP
80
ENDCHAR
STARTCHAR slash
ENCODING 47
SWIDTH 270 0
DWIDTH 4 0
BBX 5 10 0 0
BITMAP
08
10
10
10
20
20
40
40
40
80
ENDCHAR
STARTCHAR zero
ENCODING 48
SWIDTH 530 0
DWIDTH 7 0
BBX 7 9 1 0
BITMAP
1C
22
42
42
82
84
84
88
70
ENDCHAR
STARTCHAR one
ENCODING 49
SWIDTH 530 0
DWIDTH 7 0
BBX 5 9 1 0
BITMAP
08
30
10
10
10
10
20
20
F8
ENDCHAR
STARTCHAR two
ENCODING 50
SWIDTH 530 0
DWIDTH 7 0
BBX 8 9 0 0
BITMAP
0E
11
21
01
06
18
20
41
FE
ENDCHAR
STARTCHAR three
ENCODING 51
SWIDTH 530 0
DWIDTH 7 0
BBX 7 9 1 0
BITMAP
1C
22
06
38
04
04
84
48
30
ENDCHAR
STARTCHAR four
ENCODING 52
SWIDTH 530 0
DWIDTH 7 0
BBX 7 9 1 0
BITMAP
06
04
0C
14
24
44
FE
08
3C
ENDCHAR
STARTCHAR five
ENCODING 53
SWIDTH 530 0
DWIDTH 7 0
BBX 7 9 1 0
BITMAP
1E
20
40
78
44
04
84
88
70
ENDCHAR
STARTCHAR six
ENCODING 54
SWIDTH 530 0
DWIDTH 7 0
BBX 7 9 1 0
BITMAP
1C
22
42
78
84
84
84
88
70
ENDCHAR
STARTCHAR seven
ENCODING 55
SWIDTH 530 0
DWIDTH 7 0
BBX 7 9 2 0
BITMAP
7E
84
04
18
20
20
40
C0
40
ENDCHAR
STARTCHAR eight
ENCODING 56
SWIDTH 530 0
DWIDTH 7 0
BBX 7 9 1 0
BITMAP
1C
22
26
38
44
84
84
88
70
ENDCHAR
STARTCHAR nine
ENCODING 57
SWIDTH 530 0
DWIDTH 7 0
BBX 7 9 1 0
BITMAP
1C
22
42
46
3A
02
04
88
70
ENDCHAR
STARTCHAR colon
ENCODING 58
SWIDTH 265 0
DWIDTH 4 0
BBX 3 7 1 0
BITMAP
60
20
00
00
00
C0
80
ENDCHAR
STARTCHAR semicolon
ENCODING 59
SWIDTH 265 0
DWIDTH 4 0
BBX 3 8 1 -1
BITMAP
20
60
00
00
40
40
40
80
ENDCHAR
STARTCHAR less
ENCODING 60
SWIDTH 570 0
DWIDTH 8 0
BBX 7 8 1 -1
BITMAP
02
0E
30
40
C0
30
0C
02
ENDCHAR
STARTCHAR equal
ENCODING 61
SWIDTH 570 0
DWIDTH 8 0
BBX 7 4 1 1
BITMAP
FE
00
00
FE
ENDCHAR
STARTCHAR greater
ENCODING 62
SWIDTH 570 0
DWIDTH 8 0
BBX 7 8 1 -1
BITMAP
80
E0
18
04
06
18
60
80
ENDCHAR
STARTCHAR question
ENCODING 63
SWIDTH 425 0
DWIDTH 6 0
BBX 5 10 2 0
BITMAP
70
88
88
30
40
80
60
00
40
80
ENDCHAR
STARTCHAR at
ENCODING 64
SWIDTH 794 0
DWIDTH 11 0
BBX 10 10 2 0
BITMAP
1F00
2080
4E40
9240
9440
A440
AC80
9300
4000
3E00
ENDCHAR
STARTCHAR A
ENCODING 65
SWIDTH 624 0
DWIDTH 9 0
BBX 9 10 0 0
BITMAP
0200
0200
0600
0A00
1100
1F00
2100
2100
4100
E380
ENDCHAR
STARTCHAR B
ENCODING 66
SWIDTH 632 0
DWIDTH 9 0
BBX 8 10 1 0
BITMAP
7E
11
21
22
3C
22
41
41
42
FC
ENDCHAR
STARTCHAR C
ENCODING 67
SWIDTH 661 0
DWIDTH 9 0
BBX 8 10 2 0
BITMAP
1E
21
41
80
80
80
80
82
44
38
ENDCHAR
STARTCHAR D
ENCODING 68
SWIDTH 763 0
DWIDTH 11 0
BBX 10 10 1 0
BITMAP
3F00
1080
1040
1040
1040
2040
2080
2080
2300
FC00
ENDCHAR
STARTCHAR E
ENCODING 69
SWIDTH 596 0
DWIDTH 8 0
BBX 9 10 0 0
BITMAP
1F80
0880
0880
0800
1080
0F00
1100
2000
2080
FF00
ENDCHAR
STARTCHAR F
ENCODING 70
SWIDTH 571 0
DWIDTH 8 0
BBX 9 10 0 0
BITMAP
1F80
0880
0880
0800
1080
0F00
1100
2000
2000
F000
ENDCHAR
STARTCHAR G
ENCODING 71
SWIDTH 709 0
DWIDTH 10 0
BBX 8 10 2 0
BITMAP
1E
21
41
80
80
87
82
82
42
3C
ENDCHAR
STARTCHAR H
ENCODING 72
SWIDTH 775 0
DWIDTH 11 0
BBX 12 10 0 0
BITMAP
3CF0
1040
1040
1040
1040
1F80
2080
2080
2080
F3C0
ENDCHAR
STARTCHAR I
ENCODING 73
SWIDTH 345 0
DWIDTH 5 0
BBX 6 10 0 0
BITMAP
3C
10
10
10
10
20
20
20
20
F0
ENDCHAR
STARTCHAR J
ENCODING 74
SWIDTH 352 0
DWIDTH 5 0
BBX 7 12 -1 -2
BITMAP
1E
08
08
08
08
08
10
10
10
20
20
C0
ENDCHAR
STARTCHAR K
ENCODING 75
SWIDTH 650 0
DWIDTH 9 0
BBX 11 10 0 0
BITMAP
3DE0
1080
1300
1400
1800
2800
2400
2200
2200
F180
ENDCHAR
STARTCHAR L
ENCODING 76
SWIDTH 565 0
DWIDTH 8 0
BBX 8 10 0 0
BITMAP
3C
10
10
10
10
20
20
21
21
FE
ENDCHAR
STARTCHAR M
ENCODING 77
SWIDTH 920 0
DWIDTH 13 0
BBX 14 10 0 0
BITMAP
301C
1810
1830
2850
2490
24A0
2520
4620
4420
E4F0
ENDCHAR
STARTCHAR N
ENCODING 78
SWIDTH 763 0
DWIDTH 11 0
BBX 12 10 0 0
BITMAP
3870
1820
1420
2440
2240
2240
2140
4180
4080
E080
ENDCHAR
STARTCHAR O
ENCODING 79
SWIDTH 753 0
DWIDTH 10 0
BBX 9 10 2 0
BITMAP
1E00
2100
4080
4080
8080
8080
8100
8100
4200
3C00
ENDCHAR
STARTCHAR P
ENCODING 80
SWIDTH 614 0
DWIDTH 9 0
BBX 9 10 0 0
BITMAP
1E00
0980
0880
0880
1100
0E00
1000
2000
2000
F000
ENDCHAR
STARTCHAR Q
ENCODING 81
SWIDTH 753 0
DWIDTH 10 0
BBX 9 13 2 -3
BITMAP
1E00
2100
4080
4080
8080
8080
8100
8100
4200
3C00
0800
0400
0300
ENDCHAR
STARTCHAR R
ENCODING 82
SWIDTH 640 0
DWIDTH 9 0
BBX 9 10 0 0
BITMAP
3F00
1880
0880
1080
1100
1E00
2100
2100
2100
F080
ENDCHAR
STARTCHAR S
ENCODING 83
SWIDTH 533 0
DWIDTH 7 0
BBX 7 10 1 0
BITMAP
1C
22
24
20
10
08
04
84
84
78
ENDCHAR
STARTCHAR T
ENCODING 84
SWIDTH 606 0
DWIDTH 8 0
BBX 9 10 1 0
BITMAP
7F80
4880
8880
0800
0800
1000
1000
1000
1000
7800
ENDCHAR
STARTCHAR U
ENCODING 85
SWIDTH 794 0
DWIDTH 11 0
BBX 10 10 2 0
BITMAP
F3C0
4100
4100
4100
8100
8200
8200
8200
8400
7800
ENDCHAR
STARTCHAR V
ENCODING 86
SWIDTH 637 0
DWIDTH 9 0
BBX 10 10 2 0
BITMAP
F1C0
2080
2100
2200
2200
2400
2800
2800
3000
2000
ENDCHAR
STARTCHAR W
ENCODING 87
SWIDTH 946 0
DWIDTH 13 0
BBX 14 10 2 0
BITMAP
E01C
4208
4210
4610
4520
4920
4940
5140
3180
2100
ENDCHAR
STARTCHAR X
ENCODING 88
SWIDTH 632 0
DWIDTH 9 0
BBX 11 10 0 0
BITMAP
3CE0
0880
0900
0600
0400
0400
0A00
1200
2100
F3C0
ENDCHAR
STARTCHAR Y
ENCODING 89
SWIDTH 591 0
DWIDTH 8 0
BBX 9 10 2 0
BITMAP
E380
4100
2200
2400
2800
1000
2000
2000
2000
F800
ENDCHAR
STARTCHAR Z
ENCODING 90
SWIDTH 622 0
DWIDTH 9 0
BBX 10 10 0 0
BITMAP
1FC0
1080
2100
0200
0400
0800
1000
2080
4100
FF00
ENDCHAR
STARTCHAR bracketleft
ENCODING 91
SWIDTH 330 0
DWIDTH 5 0
BBX 5 12 1 -2
BITMAP
18
20
20
20
20
40
40
40
40
40
40
C0
ENDCHAR
STARTCHAR backslash
ENCODING 92
SWIDTH 390 0
DWIDTH 5 0
BBX 4 10 2 0
BITMAP
80
80
40
40
40
20
20
20
10
10
ENDCHAR
STARTCHAR bracketright
ENCODING 93
SWIDTH 330 0
DWIDTH 5 0
BBX 5 12 0 -2
BITMAP
18
10
10
10
10
10
10
20
20
20
20
C0
ENDCHAR
STARTCHAR asciicircum
ENCODING 94
SWIDTH 570 0
DWIDTH 8 0
BBX 6 6 2 3
BITMAP
10
30
48
48
48
84
ENDCHAR
STARTCHAR underscore
ENCODING 95
SWIDTH 500 0
DWIDTH 7 0
BBX 7 1 0 -2
BITMAP
FE
ENDCHAR
STARTCHAR grave
ENCODING 96
SWIDTH 400 0
DWIDTH 6 0
BBX 3 3 3 7
BITMAP
80
40
20
ENDCHAR
STARTCHAR a
ENCODING 97
SWIDTH 561 0
DWIDTH 8 0
BBX 7 7 1 0
BITMAP
1C
24
44
88
98
AA
4C
ENDCHAR
STARTCHAR b
ENCODING 98
SWIDTH 559 0
DWIDTH 8 0
BBX 7 10 1 0
BITMAP
10
60
20
4C
52
62
42
44
4C
B0
ENDCHAR
STARTCHAR c
ENCODING 99
SWIDTH 441 0
DWIDTH 6 0
BBX 6 7 1 0
BITMAP
38
44
40
80
80
88
70
ENDCHAR
STARTCHAR d
ENCODING 100
SWIDTH 587 0
DWIDTH 8 0
BBX 8 10 1 0
BITMAP
01
03
01
1E
22
42
84
8C
95
66
ENDCHAR
STARTCHAR e
ENCODING 101
SWIDTH 453 0
DWIDTH 6 0
BBX 6 7 1 0
BITMAP
38
44
4C
F0
80
88
70
ENDCHAR
STARTCHAR f
ENCODING 102
SWIDTH 315 0
DWIDTH 4 0
BBX 8 13 -1 -3
BITMAP
06
09
08
3E
08
10
10
10
10
20
20
A0
40
ENDCHAR
STARTCHAR g
ENCODING 103
SWIDTH 499 0
DWIDTH 7 0
BBX 7 10 1 -3
BITMAP
3A
44
44
44
38
78
C4
84
8C
70
ENDCHAR
STARTCHAR h
ENCODING 104
SWIDTH 607 0
DWIDTH 8 0
BBX 8 10 1 0
BITMAP
10
60
20
24
2A
32
22
44
45
C6
ENDCHAR
STARTCHAR i
ENCODING 105
SWIDTH 317 0
DWIDTH 4 0
BBX 3 10 2 0
BITMAP
20
20
00
E0
40
40
40
80
A0
C0
ENDCHAR
STARTCHAR j
ENCODING 106
SWIDTH 309 0
DWIDTH 4 0
BBX 5 13 0 -3
BITMAP
18
08
00
08
10
10
10
10
10
10
20
A0
40
ENDCHAR
STARTCHAR k
ENCODING 107
SWIDTH 545 0
DWIDTH 8 0
BBX 7 10 1 0
BITMAP
10
60
20
46
58
50
50
52
54
88
ENDCHAR
STARTCHAR l
ENCODING 108
SWIDTH 306 0
DWIDTH 4 0
BBX 3 10 2 0
BITMAP
20
60
20
40
40
40
40
80
A0
C0
ENDCHAR
STARTCHAR m
ENCODING 109
SWIDTH 912 0
DWIDTH 13 0
BBX 12 7 1 0
BITMAP
6440
2AA0
3320
2220
4440
4450
C460
ENDCHAR
STARTCHAR n
ENCODING 110
SWIDTH 618 0
DWIDTH 9 0
BBX 8 7 1 0
BITMAP
64
2A
32
22
44
45
C6
ENDCHAR
STARTCHAR o
ENCODING 111
SWIDTH 537 0
DWIDTH 7 0
BBX 7 7 1 0
BITMAP
1C
62
42
82
84
8C
70
ENDCHAR
STARTCHAR p
ENCODING 112
SWIDTH 590 0
DWIDTH 8 0
BBX 7 10 1 -3
BITMAP
AC
52
62
42
44
4C
B0
80
80
80
ENDCHAR
STARTCHAR q
ENCODING 113
SWIDTH 559 0
DWIDTH 8 0
BBX 7 10 1 -3
BITMAP
1A
24
44
84
8C
B4
44
08
08
10
ENDCHAR
STARTCHAR r
ENCODING 114
SWIDTH 402 0
DWIDTH 6 0
BBX 6 7 1 0
BITMAP
6C
30
20
20
40
40
C0
ENDCHAR
STARTCHAR s
ENCODING 115
SWIDTH 389 0
DWIDTH 5 0
BBX 5 7 1 0
BITMAP
30
48
40
20
10
90
60
ENDCHAR
STARTCHAR t
ENCODING 116
SWIDTH 341 0
DWIDTH 5 0
BBX 4 9 2 0
BITMAP
20
40
F0
40
40
40
80
A0
C0
ENDCHAR
STARTCHAR u
ENCODING 117
SWIDTH 618 0
DWIDTH 9 0
BBX 7 7 2 0
BITMAP
C4
44
44
88
98
AA
4C
ENDCHAR
STARTCHAR v
ENCODING 118
SWIDTH 510 0
DWIDTH 7 0
BBX 6 7 2 0
BITMAP
C4
44
44
88
88
B0
40
ENDCHAR
STARTCHAR w
ENCODING 119
SWIDTH 785 0
DWIDTH 11 0
BBX 10 7 2 0
BITMAP
C440
4440
4440
8840
9880
AB00
4400
ENDCHAR
STARTCHAR x
ENCODING 120
SWIDTH 516 0
DWIDTH 7 0
BBX 8 7 0 0
BITMAP
33
14
08
08
18
26
C4
ENDCHAR
STARTCHAR y
ENCODING 121
SWIDTH 468 0
DWIDTH 6 0
BBX 7 10 0 -3
BITMAP
62
12
12
14
14
14
18
10
A0
40
ENDCHAR
STARTCHAR z
ENCODING 122
SWIDTH 468 0
DWIDTH 6 0
BBX 7 7 1 0
BITMAP
3E
44
08
10
22
64
98
ENDCHAR
STARTCHAR braceleft
ENCODING 123
SWIDTH 340 0
DWIDTH 5 0
BBX 5 12 2 -2
BITMAP
18
20
20
20
20
C0
40
40
40
80
80
40
ENDCHAR
STARTCHAR bar
ENCODING 124
SWIDTH 270 0
DWIDTH 4 0
BBX 1 10 2 0
BITMAP
80
80
80
80
80
80
80
80
80
80
ENDCHAR
STARTCHAR braceright
ENCODING 125
SWIDTH 340 0
DWIDTH 5 0
BBX 5 12 0 -2
BITMAP
10
08
08
10
10
08
30
20
20
20
20
C0
ENDCHAR
STARTCHAR asciitilde
ENCODING 126
SWIDTH 570 0
DWIDTH 8 0
BBX 6 2 2 2
BITMAP
64
98
ENDCHAR
STARTCHAR space
ENCODING 160
SWIDTH 225 0
DWIDTH 3 0
BBX 0 0 0 0
BITMAP
ENDCHAR
STARTCHAR exclamdown
ENCODING 161
SWIDTH 240 0
DWIDTH 3 0
BBX 4 10 0 -3
BITMAP
30
20
00
20
20
40
40
40
40
80
ENDCHAR
STARTCHAR cent
ENCODING 162
SWIDTH 530 0
DWIDTH 7 0
BBX 6 9 2 0
BITMAP
08
18
74
50
90
A0
A8
70
20
ENDCHAR
STARTCHAR sterling
ENCODING 163
SWIDTH 530 0
DWIDTH 7 0
BBX 7 9 1 0
BITMAP
1C
22
20
20
7C
10
10
22
FC
ENDCHAR
STARTCHAR currency
ENCODING 164
SWIDTH 530 0
DWIDTH 7 0
BBX 6 7 2 1
BITMAP
B4
48
84
84
84
48
B4
ENDCHAR
STARTCHAR yen
ENCODING 165
SWIDTH 530 0
DWIDTH 7 0
BBX 8 9 1 0
BITMAP
77
22
24
28
FC
20
FC
20
F0
ENDCHAR
STARTCHAR brokenbar
ENCODING 166
SWIDTH 270 0
DWIDTH 4 0
BBX 1 10 2 0
BITMAP
80
80
80
80
00
80
80
80
80
80
ENDCHAR
STARTCHAR section
ENCODING 167
SWIDTH 530 0
DWIDTH 7 0
BBX 6 12 2 -2
BITMAP
18
24
20
E0
90
88
44
24
18
10
90
60
ENDCHAR
STARTCHAR dieresis
ENCODING 168
SWIDTH 400 0
DWIDTH 6 0
BBX 4 1 3 8
BITMAP
90
ENDCHAR
STARTCHAR copyright
ENCODING 169
SWIDTH 836 0
DWIDTH 12 0
BBX 10 10 2 0
BITMAP
3E00
4100
9C80
A240
A040
A040
A240
9C80
4100
3E00
ENDCHAR
STARTCHAR ordfeminine
ENCODING 170
SWIDTH 425 0
DWIDTH 6 0
BBX 5 5 2 4
BITMAP
08
30
50
90
78
ENDCHAR
STARTCHAR guillemotleft
ENCODING 171
SWIDTH 462 0
DWIDTH 6 0
BBX 5 5 2 1
BITMAP
48
50
90
50
50
ENDCHAR
STARTCHAR logicalnot
ENCODING 172
SWIDTH 570 0
DWIDTH 8 0
BBX 7 4 1 1
BITMAP
FE
02
02
02
ENDCHAR
STARTCHAR hyphen
ENCODING 173
SWIDTH 392 0
DWIDTH 5 0
BBX 4 1 1 3
BITMAP
F0
ENDCHAR
STARTCHAR registered
ENCODING 174
SWIDTH 836 0
DWIDTH 12 0
BBX 10 10 2 0
BITMAP
1E00
2100
5C80
9240
9240
9C40
9240
5880
4100
3E00
ENDCHAR
STARTCHAR macron
ENCODING 175
SWIDTH 400 0
DWIDTH 6 0
BBX 4 1 3 8
BITMAP
F0
ENDCHAR
STARTCHAR degree
ENCODING 176
SWIDTH 400 0
DWIDTH 6 0
BBX 5 4 2 5
BITMAP
70
88
88
70
ENDCHAR
STARTCHAR plusminus
ENCODING 177
SWIDTH 570 0
DWIDTH 8 0
BBX 7 8 1 0
BITMAP
10
10
10
FE
10
10
00
FE
ENDCHAR
STARTCHAR twosuperior
ENCODING 178
SWIDTH 370 0
DWIDTH 5 0
BBX 5 5 1 4
BITMAP
30
48
10
60
F8
ENDCHAR
STARTCHAR threesuperior
ENCODING 179
SWIDTH 370 0
DWIDTH 5 0
BBX 5 5 1 4
BITMAP
70
08
30
90
60
ENDCHAR
STARTCHAR acute
ENCODING 180
SWIDTH 400 0
DWIDTH 6 0
BBX 3 3 3 7
BITMAP
20
40
80
ENDCHAR
STARTCHAR mu
ENCODING 181
SWIDTH 618 0
DWIDTH 9 0
BBX 8 10 1 -3
BITMAP
52
22
22
24
4C
55
A6
80
80
80
ENDCHAR
STARTCHAR paragraph
ENCODING 182
SWIDTH 560 0
DWIDTH 8 0
BBX 7 12 2 -2
BITMAP
26
68
68
68
C8
48
48
10
10
10
10
60
ENDCHAR
STARTCHAR periodcentered
ENCODING 183
SWIDTH 265 0
DWIDTH 4 0
BBX 1 1 2 3
BITMAP
80
ENDCHAR
STARTCHAR cedilla
ENCODING 184
SWIDTH 400 0
DWIDTH 6 0
BBX 2 4 2 -3
BITMAP
40
80
40
80
ENDCHAR
STARTCHAR onesuperior
ENCODING 185
SWIDTH 370 0
DWIDTH 5 0
BBX 3 5 2 4
BITMAP
60
20
40
40
E0
ENDCHAR
STARTCHAR ordmasculine
ENCODING 186
SWIDTH 389 0
DWIDTH 5 0
BBX 4 4 2 4
BITMAP
60
90
90
60
ENDCHAR
STARTCHAR guillemotright
ENCODING 187
SWIDTH 462 0
DWIDTH 6 0
BBX 5 5 1 1
BITMAP
50
50
48
50
90
ENDCHAR
STARTCHAR onequarter
ENCODING 188
SWIDTH 890 0
DWIDTH 12 0
BBX 10 10 2 0
BITMAP
0080
6080
2100
4200
44C0
E580
0980
1280
27C0
4180
ENDCHAR
STARTCHAR onehalf
ENCODING 189
SWIDTH 890 0
DWIDTH 12 0
BBX 10 10 2 0
BITMAP
0080
6100
2100
4200
4480
C940
1040
2180
2200
47C0
ENDCHAR
STARTCHAR threequarters
ENCODING 190
SWIDTH 890 0
DWIDTH 12 0
BBX 10 10 2 0
BITMAP
0080
E080
1100
6100
1240
E4C0
0940
1240
17C0
21C0
ENDCHAR
STARTCHAR questiondown
ENCODING 191
SWIDTH 425 0
DWIDTH 6 0
BBX 4 10 1 -3
BITMAP
10
20
00
60
10
20
40
90
90
60
ENDCHAR
STARTCHAR Agrave
ENCODING 192
SWIDTH 624 0
DWIDTH 9 0
BBX 9 13 0 0
BITMAP
0800
0C00
0300
0000
0200
0600
0900
1100
1F00
2100
2100
4100
E380
ENDCHAR
STARTCHAR Aacute
ENCODING 193
SWIDTH 624 0
DWIDTH 9 0
BBX 9 12 0 0
BITMAP
0080
0700
0000
0200
0600
0900
1100
1F00
2100
2100
4100
E380
ENDCHAR
STARTCHAR Acircumflex
ENCODING 194
SWIDTH 624 0
DWIDTH 9 0
BBX 9 12 0 0
BITMAP
0200
0500
0880
0200
0600
0900
1100
1F00
2100
2100
4100
E380
ENDCHAR
STARTCHAR Atilde
ENCODING 195
SWIDTH 624 0
DWIDTH 9 0
BBX 9 12 0 0
BITMAP
0780
0800
0200
0200
0600
0A00
1100
1F00
2100
2100
4100
E380
ENDCHAR
STARTCHAR Adieresis
ENCODING 196
SWIDTH 624 0
DWIDTH 9 0
BBX 9 12 0 0
BITMAP
0480
0000
0300
0300
0500
0900
0900
1F00
2100
2100
4100
E380
ENDCHAR
STARTCHAR Aring
ENCODING 197
SWIDTH 624 0
DWIDTH 9 0
BBX 9 12 0 0
BITMAP
0200
0500
0200
0200
0600
0A00
1200
1E00
2200
2200
4100
E380
ENDCHAR
STARTCHAR AE
ENCODING 198
SWIDTH 880 0
DWIDTH 12 0
BBX 13 10 0 0
BITMAP
03F8
0188
0288
0480
0508
0FF0
1110
2200
4208
EFF0
ENDCHAR
STARTCHAR Ccedilla
ENCODING 199
SWIDTH 661 0
DWIDTH 9 0
BBX 8 14 2 -4
BITMAP
1E
21
41
80
80
80
80
82
44
38
20
20
10
20
ENDCHAR
STARTCHAR Egrave
ENCODING 200
SWIDTH 596 0
DWIDTH 8 0
BBX 9 13 0 0
BITMAP
0800
0400
0300
1F80
0880
0880
0800
1080
0F00
1100
2000
2080
FF00
ENDCHAR
STARTCHAR Eacute
ENCODING 201
SWIDTH 596 0
DWIDTH 8 0
BBX 9 12 0 0
BITMAP
0080
0700
1F80
0880
0880
0800
1080
0F00
1100
2000
2080
FF00
ENDCHAR
STARTCHAR Ecircumflex
ENCODING 202
SWIDTH 596 0
DWIDTH 8 0
BBX 9 12 0 0
BITMAP
0200
0500
1F80
0880
0880
0800
1080
0F00
1100
2000
2080
FF00
ENDCHAR
STARTCHAR Edieresis
ENCODING 203
SWIDTH 596 0
DWIDTH 8 0
BBX 9 12 0 0
BITMAP
0900
0000
1F80
0880
0880
0800
1080
0F00
1100
2000
2080
FF00
ENDCHAR
STARTCHAR Igrave
ENCODING 204
SWIDTH 345 0
DWIDTH 5 0
BBX 6 13 0 0
BITMAP
20
38
00
3C
10
10
10
10
20
20
20
20
F0
ENDCHAR
STARTCHAR Iacute
ENCODING 205
SWIDTH 345 0
DWIDTH 5 0
BBX 6 12 1 0
BITMAP
0C
30
3C
10
10
10
20
20
20
20
20
F0
ENDCHAR
STARTCHAR Icircumflex
ENCODING 206
SWIDTH 345 0
DWIDTH 5 0
BBX 6 12 1 0
BITMAP
18
28
7C
10
10
10
20
20
20
20
20
F0
ENDCHAR
STARTCHAR Idieresis
ENCODING 207
SWIDTH 345 0
DWIDTH 5 0
BBX 7 12 0 0
BITMAP
12
00
1C
08
10
10
10
10
10
20
20
F0
ENDCHAR
STARTCHAR Eth
ENCODING 208
SWIDTH 770 0
DWIDTH 11 0
BBX 10 10 1 0
BITMAP
3F00
1080
1040
1040
1040
7C40
2040
2080
2100
FE00
ENDCHAR
STARTCHAR Ntilde
ENCODING 209
SWIDTH 763 0
DWIDTH 11 0
BBX 12 12 0 0
BITMAP
06C0
0100
3870
1820
1420
2440
2240
2240
2140
4180
4080
E080
ENDCHAR
STARTCHAR Ograve
ENCODING 210
SWIDTH 753 0
DWIDTH 10 0
BBX 9 12 2 0
BITMAP
0800
0600
1E00
2100
4080
4080
8080
8080
8100
8100
4200
3C00
ENDCHAR
STARTCHAR Oacute
ENCODING 211
SWIDTH 753 0
DWIDTH 10 0
BBX 9 12 2 0
BITMAP
0100
0600
1E00
2100
4080
4080
8080
8080
8100
8100
4200
3C00
ENDCHAR
STARTCHAR Ocircumflex
ENCODING 212
SWIDTH 753 0
DWIDTH 10 0
BBX 9 12 2 0
BITMAP
0600
0900
1E00
2100
4080
4080
8080
8080
8100
8100
4200
3C00
ENDCHAR
STARTCHAR Otilde
ENCODING 213
SWIDTH 753 0
DWIDTH 10 0
BBX 9 12 2 0
BITMAP
1E80
0100
1C00
2300
4080
4080
8080
8080
8100
8100
4200
3C00
ENDCHAR
STARTCHAR Odieresis
ENCODING 214
SWIDTH 753 0
DWIDTH 10 0
BBX 9 12 2 0
BITMAP
0A00
0000
1E00
2100
4080
4080
8080
8080
8100
8100
4200
3C00
ENDCHAR
STARTCHAR multiply
ENCODING 215
SWIDTH 570 0
DWIDTH 8 0
BBX 6 6 2 0
BITMAP
84
48
30
30
48
84
ENDCHAR
STARTCHAR Oslash
ENCODING 216
SWIDTH 753 0
DWIDTH 10 0
BBX 9 10 2 0
BITMAP
1E80
2100
4280
4480
8880
9080
A100
A100
4200
BC00
ENDCHAR
STARTCHAR Ugrave
ENCODING 217
SWIDTH 794 0
DWIDTH 11 0
BBX 10 13 2 0
BITMAP
2000
3800
0400
F1C0
4100
4100
4100
8100
8200
8200
8200
8400
7800
ENDCHAR
STARTCHAR Uacute
ENCODING 218
SWIDTH 794 0
DWIDTH 11 0
BBX 10 12 2 0
BITMAP
0700
0800
E3C0
4100
4100
4100
8100
8200
8200
8200
8400
7800
ENDCHAR
STARTCHAR Ucircumflex
ENCODING 219
SWIDTH 794 0
DWIDTH 11 0
BBX 10 12 2 0
BITMAP
0400
1A00
F3C0
4100
4100
4100
8100
8200
8200
8200
8400
7800
ENDCHAR
STARTCHAR Udieresis
ENCODING 220
SWIDTH 794 0
DWIDTH 11 0
BBX 11 12 2 0
BITMAP
0900
0000
F1E0
6080
4080
4080
4100
8100
8100
8200
4200
3C00
ENDCHAR
STARTCHAR Yacute
ENCODING 221
SWIDTH 591 0
DWIDTH 8 0
BBX 9 12 2 0
BITMAP
0700
0800
E380
4100
2200
2400
2800
1000
2000
2000
2000
F800
ENDCHAR
STARTCHAR Thorn
ENCODING 222
SWIDTH 604 0
DWIDTH 8 0
BBX 9 10 0 0
BITMAP
3E00
0800
1F00
1080
1080
1080
2100
3E00
2000
F000
ENDCHAR
STARTCHAR germandbls
ENCODING 223
SWIDTH 577 0
DWIDTH 8 0
BBX 10 13 -1 -3
BITMAP
0380
0440
0840
1980
0A00
1200
1100
1080
1480
2300
2000
A000
4000
ENDCHAR
STARTCHAR agrave
ENCODING 224
SWIDTH 561 0
DWIDTH 8 0
BBX 7 10 1 0
BITMAP
10
08
00
1C
24
44
88
98
AA
4C
ENDCHAR
STARTCHAR aacute
ENCODING 225
SWIDTH 561 0
DWIDTH 8 0
BBX 7 10 1 0
BITMAP
06
08
00
1C
24
44
88
98
AA
4C
ENDCHAR
STARTCHAR acircumflex
ENCODING 226
SWIDTH 561 0
DWIDTH 8 0
BBX 7 10 1 0
BITMAP
08
14
00
1C
24
44
88
98
AA
4C
ENDCHAR
STARTCHAR atilde
ENCODING 227
SWIDTH 561 0
DWIDTH 8 0
BBX 7 10 1 0
BITMAP
02
3C
00
1C
24
44
88
98
AA
4C
ENDCHAR
STARTCHAR adieresis
ENCODING 228
SWIDTH 561 0
DWIDTH 8 0
BBX 7 9 1 0
BITMAP
12
00
1E
24
44
88
98
AA
4C
ENDCHAR
STARTCHAR aring
ENCODING 229
SWIDTH 561 0
DWIDTH 8 0
BBX 7 11 1 0
BITMAP
08
14
14
08
1E
24
44
88
98
AA
4C
ENDCHAR
STARTCHAR ae
ENCODING 230
SWIDTH 779 0
DWIDTH 11 0
BBX 10 7 1 0
BITMAP
1F80
2240
4440
8580
8E00
9480
6300
ENDCHAR
STARTCHAR ccedilla
ENCODING 231
SWIDTH 441 0
DWIDTH 6 0
BBX 6 11 1 -4
BITMAP
38
44
40
80
80
88
70
40
40
20
C0
ENDCHAR
STARTCHAR egrave
ENCODING 232
SWIDTH 453 0
DWIDTH 6 0
BBX 6 10 1 0
BITMAP
60
18
00
38
44
4C
F0
80
88
70
ENDCHAR
STARTCHAR eacute
ENCODING 233
SWIDTH 453 0
DWIDTH 6 0
BBX 6 10 1 0
BITMAP
04
18
00
38
44
4C
F0
80
88
70
ENDCHAR
STARTCHAR ecircumflex
ENCODING 234
SWIDTH 453 0
DWIDTH 6 0
BBX 6 10 1 0
BITMAP
08
34
00
38
44
4C
F0
80
88
70
ENDCHAR
STARTCHAR edieresis
ENCODING 235
SWIDTH 453 0
DWIDTH 6 0
BBX 6 9 1 0
BITMAP
24
00
18
64
4C
F0
80
88
70
ENDCHAR
STARTCHAR igrave
ENCODING 236
SWIDTH 317 0
DWIDTH 4 0
BBX 3 10 2 0
BITMAP
80
60
00
E0
40
40
40
80
A0
C0
ENDCHAR
STARTCHAR iacute
ENCODING 237
SWIDTH 317 0
DWIDTH 4 0
BBX 4 10 2 0
BITMAP
10
E0
00
E0
40
40
40
80
A0
C0
ENDCHAR
STARTCHAR icircumflex
ENCODING 238
SWIDTH 317 0
DWIDTH 4 0
BBX 4 10 2 0
BITMAP
20
D0
00
E0
40
40
40
80
A0
C0
ENDCHAR
STARTCHAR idieresis
ENCODING 239
SWIDTH 317 0
DWIDTH 4 0
BBX 4 9 2 0
BITMAP
90
00
A0
40
40
40
80
A0
C0
ENDCHAR
STARTCHAR eth
ENCODING 240
SWIDTH 537 0
DWIDTH 7 0
BBX 7 10 1 0
BITMAP
22
14
6C
0C
32
42
82
84
8C
70
ENDCHAR
STARTCHAR ntilde
ENCODING 241
SWIDTH 618 0
DWIDTH 9 0
BBX 8 10 1 0
BITMAP
02
3C
00
64
2A
32
22
44
45
C6
ENDCHAR
STARTCHAR ograve
ENCODING 242
SWIDTH 537 0
DWIDTH 7 0
BBX 7 10 1 0
BITMAP
30
0C
00
1C
62
42
82
84
8C
70
ENDCHAR
STARTCHAR oacute
ENCODING 243
SWIDTH 537 0
DWIDTH 7 0
BBX 7 10 1 0
BITMAP
02
1C
00
1C
62
42
82
84
8C
70
ENDCHAR
STARTCHAR ocircumflex
ENCODING 244
SWIDTH 537 0
DWIDTH 7 0
BBX 7 10 1 0
BITMAP
0C
32
00
1C
62
42
82
84
8C
70
ENDCHAR
STARTCHAR otilde
ENCODING 245
SWIDTH 537 0
DWIDTH 7 0
BBX 7 10 1 0
BITMAP
02
3C
00
1C
62
42
82
84
8C
70
ENDCHAR
STARTCHAR odieresis
ENCODING 246
SWIDTH 537 0
DWIDTH 7 0
BBX 7 9 1 0
BITMAP
12
00
1C
22
42
82
84
8C
70
ENDCHAR
STARTCHAR divide
ENCODING 247
SWIDTH 570 0
DWIDTH 8 0
BBX 6 5 2 1
BITMAP
20
00
FC
00
20
ENDCHAR
STARTCHAR oslash
ENCODING 248
SWIDTH 537 0
DWIDTH 7 0
BBX 7 7 1 0
BITMAP
1A
64
4A
92
E4
8C
F0
ENDCHAR
STARTCHAR ugrave
ENCODING 249
SWIDTH 618 0
DWIDTH 9 0
BBX 7 10 2 0
BITMAP
20
18
00
C4
44
44
88
98
AA
4C
ENDCHAR
STARTCHAR uacute
ENCODING 250
SWIDTH 618 0
DWIDTH 9 0
BBX 7 10 2 0
BITMAP
04
08
10
C4
44
44
88
98
AA
4C
ENDCHAR
STARTCHAR ucircumflex
ENCODING 251
SWIDTH 618 0
DWIDTH 9 0
BBX 7 10 2 0
BITMAP
08
34
00
C4
44
44
88
98
AA
4C
ENDCHAR
STARTCHAR udieresis
ENCODING 252
SWIDTH 618 0
DWIDTH 9 0
BBX 7 9 2 0
BITMAP
24
00
C4
44
44
88
98
AA
4C
ENDCHAR
STARTCHAR yacute
ENCODING 253
SWIDTH 468 0
DWIDTH 6 0
BBX 7 13 0 -3
BITMAP
02
04
08
62
12
12
14
14
14
18
10
A0
40
ENDCHAR
STARTCHAR thorn
ENCODING 254
SWIDTH 584 0
DWIDTH 8 0
BBX 7 13 1 -3
BITMAP
10
60
20
4C
52
62
42
44
4C
B0
80
80
80
ENDCHAR
STARTCHAR ydieresis
ENCODING 255
SWIDTH 468 0
DWIDTH 6 0
BBX 7 12 0 -3
BITMAP
0A
00
62
12
12
14
14
14
18
10
A0
40
ENDCHAR
STARTCHAR Amacron
ENCODING 256
SWIDTH 624 0
DWIDTH 9 0
BBX 9 12 0 0
BITMAP
0F00
0000
0200
0200
0600
0A00
1100
1F00
2100
2100
4100
E380
ENDCHAR
STARTCHAR amacron
ENCODING 257
SWIDTH 561 0
DWIDTH 8 0
BBX 7 9 1 0
BITMAP
3C
00
1C
24
44
88
98
AA
4C
ENDCHAR
STARTCHAR Abreve
ENCODING 258
SWIDTH 624 0
DWIDTH 9 0
BBX 9 14 0 0
BITMAP
0900
0900
0600
0000
0200
0200
0600
0A00
1100
1F00
2100
2100
4100
E380
ENDCHAR
STARTCHAR abreve
ENCODING 259
SWIDTH 561 0
DWIDTH 8 0
BBX 7 11 1 0
BITMAP
24
24
18
00
1C
24
44
88
98
AA
4C
ENDCHAR
STARTCHAR Aogonek
ENCODING 260
SWIDTH 624 0
DWIDTH 9 0
BBX 9 13 0 -3
BITMAP
0200
0200
0600
0A00
1100
1F00
2100
2100
4100
EB80
1000
1000
0C00
ENDCHAR
STARTCHAR aogonek
ENCODING 261
SWIDTH 561 0
DWIDTH 8 0
BBX 7 10 1 -3
BITMAP
1C
24
44
88
98
AA
5C
20
20
18
ENDCHAR
STARTCHAR Cacute
ENCODING 262
SWIDTH 661 0
DWIDTH 9 0
BBX 8 14 2 0
BITMAP
02
04
08
00
1E
21
41
80
80
80
80
82
44
38
ENDCHAR
STARTCHAR cacute
ENCODING 263
SWIDTH 441 0
DWIDTH 6 0
BBX 6 11 1 0
BITMAP
04
08
10
00
38
44
40
80
80
88
70
ENDCHAR
STARTCHAR Ccircumflex
ENCODING 264
SWIDTH 661 0
DWIDTH 9 0
BBX 8 13 2 0
BITMAP
04
1A
00
1E
21
41
80
80
80
80
82
44
38
ENDCHAR
STARTCHAR ccircumflex
ENCODING 265
SWIDTH 441 0
DWIDTH 6 0
BBX 6 10 1 0
BITMAP
10
68
00
38
44
40
80
80
88
70
ENDCHAR
STARTCHAR Cdotaccent
ENCODING 266
SWIDTH 661 0
DWIDTH 9 0
BBX 8 12 2 0
BITMAP
08
00
1E
21
41
80
80
80
80
82
44
38
ENDCHAR
STARTCHAR cdotaccent
ENCODING 267
SWIDTH 441 0
DWIDTH 6 0
BBX 6 9 1 0
BITMAP
10
00
38
44
40
80
80
88
70
ENDCHAR
STARTCHAR Ccaron
ENCODING 268
SWIDTH 661 0
DWIDTH 9 0
BBX 8 13 2 0
BITMAP
16
08
00
1E
21
41
80
80
80
80
82
44
38
ENDCHAR
STARTCHAR ccaron
ENCODING 269
SWIDTH 441 0
DWIDTH 6 0
BBX 6 10 1 0
BITMAP
2C
10
00
38
44
40
80
80
88
70
ENDCHAR
STARTCHAR Dcaron
ENCODING 270
SWIDTH 763 0
DWIDTH 11 0
BBX 10 13 1 0
BITMAP
0B00
0400
0000
3F00
1080
1040
1040
1040
2040
2080
2080
2300
FC00
ENDCHAR
STARTCHAR dcaron
ENCODING 271
SWIDTH 774 0
DWIDTH 11 0
BBX 11 10 1 0
BITMAP
0120
0320
0120
1E40
2200
4200
8400
8C00
9500
6600
ENDCHAR
STARTCHAR Dcroat
ENCODING 272
SWIDTH 770 0
DWIDTH 11 0
BBX 10 10 1 0
BITMAP
3F00
1080
1040
1040
1040
7C40
2040
2080
2100
FE00
ENDCHAR
STARTCHAR dcroat
ENCODING 273
SWIDTH 587 0
DWIDTH 8 0
BBX 8 10 1 0
BITMAP
01
3F
01
1E
22
42
84
8C
95
66
ENDCHAR
STARTCHAR Emacron
ENCODING 274
SWIDTH 596 0
DWIDTH 8 0
BBX 9 12 0 0
BITMAP
0F00
0000
1F80
0880
0880
0800
1080
0F00
1100
2000
2080
FF00
ENDCHAR
STARTCHAR emacron
ENCODING 275
SWIDTH 453 0
DWIDTH 6 0
BBX 6 9 1 0
BITMAP
78
00
38
44
4C
F0
80
88
70
ENDCHAR
STARTCHAR Ebreve
ENCODING 276
SWIDTH 596 0
DWIDTH 8 0
BBX 9 14 0 0
BITMAP
0900
0900
0600
0000
1F80
0880
0880
0800
1080
0F00
1100
2000
2080
FF00
ENDCHAR
STARTCHAR ebreve
ENCODING 277
SWIDTH 453 0
DWIDTH 6 0
BBX 6 11 1 0
BITMAP
48
48
30
00
38
44
4C
F0
80
88
70
ENDCHAR
STARTCHAR Edotaccent
ENCODING 278
SWIDTH 596 0
DWIDTH 8 0
BBX 9 12 0 0
BITMAP
0400
0000
1F80
0880
0880
0800
1080
0F00
1100
2000
2080
FF00
ENDCHAR
STARTCHAR edotaccent
ENCODING 279
SWIDTH 453 0
DWIDTH 6 0
BBX 6 9 1 0
BITMAP
10
00
38
44
4C
F0
80
88
70
ENDCHAR
STARTCHAR Eogonek
ENCODING 280
SWIDTH 596 0
DWIDTH 8 0
BBX 9 13 0 -3
BITMAP
1F80
0880
0880
0800
1080
0F00
1100
2000
2080
FF00
1000
1000
0C00
ENDCHAR
STARTCHAR eogonek
ENCODING 281
SWIDTH 453 0
DWIDTH 6 0
BBX 6 10 1 -3
BITMAP
38
44
4C
F0
80
88
70
20
20
18
ENDCHAR
STARTCHAR Ecaron
ENCODING 282
SWIDTH 596 0
DWIDTH 8 0
BBX 9 13 0 0
BITMAP
0B00
0400
0000
1F80
0880
0880
0800
1080
0F00
1100
2000
2080
FF00
ENDCHAR
STARTCHAR ecaron
ENCODING 283
SWIDTH 453 0
DWIDTH 6 0
BBX 6 10 1 0
BITMAP
2C
10
00
38
44
4C
F0
80
88
70
ENDCHAR
STARTCHAR Gcircumflex
ENCODING 284
SWIDTH 709 0
DWIDTH 10 0
BBX 8 13 2 0
BITMAP
04
1A
00
1E
21
41
80
80
87
82
82
42
3C
ENDCHAR
STARTCHAR gcircumflex
ENCODING 285
SWIDTH 499 0
DWIDTH 7 0
BBX 7 13 1 -3
BITMAP
08
34
00
3A
44
44
44
38
78
C4
84
8C
70
ENDCHAR
STARTCHAR Gbreve
ENCODING 286
SWIDTH 709 0
DWIDTH 10 0
BBX 8 14 2 0
BITMAP
12
12
0C
00
1E
21
41
80
80
87
82
82
42
3C
ENDCHAR
STARTCHAR gbreve
ENCODING 287
SWIDTH 499 0
DWIDTH 7 0
BBX 7 14 1 -3
BITMAP
24
24
18
00
3A
44
44
44
38
78
C4
84
8C
70
ENDCHAR
STARTCHAR Gdotaccent
ENCODING 288
SWIDTH 709 0
DWIDTH 10 0
BBX 8 12 2 0
BITMAP
08
00
1E
21
41
80
80
87
82
82
42
3C
ENDCHAR
STARTCHAR gdotaccent
ENCODING 289
SWIDTH 499 0
DWIDTH 7 0
BBX 7 12 1 -3
BITMAP
10
00
3A
44
44
44
38
78
C4
84
8C
70
ENDCHAR
STARTCHAR Gcommaaccent
ENCODING 290
SWIDTH 709 0
DWIDTH 10 0
BBX 8 15 2 -5
BITMAP
1E
21
41
80
80
87
82
82
42
3C
00
08
08
08
10
ENDCHAR
STARTCHAR gcommaaccent
ENCODING 291
SWIDTH 499 0
DWIDTH 7 0
BBX 7 15 1 -3
BITMAP
08
10
10
10
00
3A
44
44
44
38
78
C4
84
8C
70
ENDCHAR
STARTCHAR Hcircumflex
ENCODING 292
SWIDTH 775 0
DWIDTH 11 0
BBX 12 13 0 0
BITMAP
0100
0680
0000
3CF0
1040
1040
1040
1040
1F80
2080
2080
2080
F3C0
ENDCHAR
STARTCHAR hcircumflex
ENCODING 293
SWIDTH 607 0
DWIDTH 8 0
BBX 8 13 1 0
BITMAP
10
68
00
10
60
20
24
2A
32
22
44
45
C6
ENDCHAR
STARTCHAR Hbar
ENCODING 294
SWIDTH 775 0
DWIDTH 11 0
BBX 12 10 0 0
BITMAP
3CF0
1040
FFF0
1040
1040
1F80
2080
2080
2080
F3C0
ENDCHAR
STARTCHAR hbar
ENCODING 295
SWIDTH 607 0
DWIDTH 8 0
BBX 9 10 0 0
BITMAP
0800
FC00
1000
1200
1500
1900
1100
2200
2280
6300
ENDCHAR
STARTCHAR Itilde
ENCODING 296
SWIDTH 345 0
DWIDTH 5 0
BBX 6 12 0 0
BITMAP
7C
00
3C
10
10
10
10
20
20
20
20
F0
ENDCHAR
STARTCHAR itilde
ENCODING 297
SWIDTH 317 0
DWIDTH 4 0
BBX 5 9 1 0
BITMAP
F8
00
70
20
20
20
40
50
60
ENDCHAR
STARTCHAR Imacron
ENCODING 298
SWIDTH 345 0
DWIDTH 5 0
BBX 6 12 0 0
BITMAP
3C
00
3C
10
10
10
10
20
20
20
20
F0
ENDCHAR
STARTCHAR imacron
ENCODING 299
SWIDTH 317 0
DWIDTH 4 0
BBX 4 9 2 0
BITMAP
F0
00
E0
40
40
40
80
A0
C0
ENDCHAR
STARTCHAR Ibreve
ENCODING 300
SWIDTH 345 0
DWIDTH 5 0
BBX 6 14 0 0
BITMAP
24
24
18
00
3C
10
10
10
10
20
20
20
20
F0
ENDCHAR
STARTCHAR ibreve
ENCODING 301
SWIDTH 317 0
DWIDTH 4 0
BBX 4 11 2 0
BITMAP
90
90
60
00
E0
40
40
40
80
A0
C0
ENDCHAR
STARTCHAR Iogonek
ENCODING 302
SWIDTH 345 0
DWIDTH 5 0
BBX 6 13 0 -3
BITMAP
3C
10
10
10
10
20
20
20
20
F0
40
40
30
ENDCHAR
STARTCHAR iogonek
ENCODING 303
SWIDTH 317 0
DWIDTH 4 0
BBX 3 13 2 -3
BITMAP
20
20
00
E0
40
40
40
80
A0
C0
80
80
60
ENDCHAR
STARTCHAR Idotaccent
ENCODING 304
SWIDTH 345 0
DWIDTH 5 0
BBX 6 12 0 0
BITMAP
10
00
3C
10
10
10
10
20
20
20
20
F0
ENDCHAR
STARTCHAR dotlessi
ENCODING 305
SWIDTH 317 0
DWIDTH 4 0
BBX 3 7 2 0
BITMAP
E0
40
40
40
80
A0
C0
ENDCHAR
STARTCHAR IJ
ENCODING 306
SWIDTH 680 0
DWIDTH 10 0
BBX 11 12 0 -2
BITMAP
3DE0
1080
1080
1080
1080
2080
2100
2100
2100
F200
0200
0C00
ENDCHAR
STARTCHAR ij
ENCODING 307
SWIDTH 610 0
DWIDTH 8 0
BBX 7 13 2 -3
BITMAP
26
22
00
E2
44
44
44
84
A4
C4
08
28
10
ENDCHAR
STARTCHAR Jcircumflex
ENCODING 308
SWIDTH 352 0
DWIDTH 5 0
BBX 7 15 -1 -2
BITMAP
08
34
00
1E
08
08
08
08
08
10
10
10
20
20
C0
ENDCHAR
STARTCHAR jcircumflex
ENCODING 309
SWIDTH 309 0
DWIDTH 4 0
BBX 6 13 0 -3
BITMAP
08
34
00
08
10
10
10
10
10
10
20
A0
40
ENDCHAR
STARTCHAR Kcommaaccent
ENCODING 310
SWIDTH 650 0
DWIDTH 9 0
BBX 11 15 0 -5
BITMAP
3DE0
1080
1300
1400
1800
2800
2400
2200
2200
F180
0000
0800
0800
0800
1000
ENDCHAR
STARTCHAR kcommaaccent
ENCODING 311
SWIDTH 545 0
DWIDTH 8 0
BBX 7 15 1 -5
BITMAP
10
60
20
46
58
50
50
52
54
88
00
10
10
10
20
ENDCHAR
STARTCHAR kgreenlandic
ENCODING 312
SWIDTH 545 0
DWIDTH 8 0
BBX 7 7 1 0
BITMAP
46
58
50
50
52
54
88
ENDCHAR
STARTCHAR Lacute
ENCODING 313
SWIDTH 565 0
DWIDTH 8 0
BBX 8 14 0 0
BITMAP
04
08
10
00
3C
10
10
10
10
20
20
21
21
FE
ENDCHAR
STARTCHAR lacute
ENCODING 314
SWIDTH 306 0
DWIDTH 4 0
BBX 4 14 2 0
BITMAP
10
20
40
00
20
60
20
40
40
40
40
80
A0
C0
ENDCHAR
STARTCHAR Lcommaaccent
ENCODING 315
SWIDTH 565 0
DWIDTH 8 0
BBX 8 15 0 -5
BITMAP
3C
10
10
10
10
20
20
21
21
FE
00
08
08
08
10
ENDCHAR
STARTCHAR lcommaaccent
ENCODING 316
SWIDTH 306 0
DWIDTH 4 0
BBX 3 15 2 -5
BITMAP
20
60
20
40
40
40
40
80
A0
C0
00
40
40
40
80
ENDCHAR
STARTCHAR Lcaron
ENCODING 317
SWIDTH 753 0
DWIDTH 11 0
BBX 12 10 0 0
BITMAP
3C10
1010
1010
1020
1000
2000
2000
2100
2100
FE00
ENDCHAR
STARTCHAR lcaron
ENCODING 318
SWIDTH 507 0
DWIDTH 7 0
BBX 6 10 2 0
BITMAP
24
64
24
48
40
40
40
80
A0
C0
ENDCHAR
STARTCHAR Ldot
ENCODING 319
SWIDTH 802 0
DWIDTH 12 0
BBX 11 10 0 0
BITMAP
3C00
1000
1000
1000
1000
2000
2020
2100
2100
FE00
ENDCHAR
STARTCHAR ldot
ENCODING 320
SWIDTH 556 0
DWIDTH 8 0
BBX 5 10 2 0
BITMAP
20
60
20
40
40
40
48
80
A0
C0
ENDCHAR
STARTCHAR Lslash
ENCODING 321
SWIDTH 571 0
DWIDTH 8 0
BBX 8 10 1 0
BITMAP
3C
10
10
14
18
10
60
21
21
FE
ENDCHAR
STARTCHAR lslash
ENCODING 322
SWIDTH 318 0
DWIDTH 4 0
BBX 4 10 2 0
BITMAP
20
60
20
40
70
C0
40
80
A0
C0
ENDCHAR
STARTCHAR Nacute
ENCODING 323
SWIDTH 763 0
DWIDTH 11 0
BBX 12 14 0 0
BITMAP
0080
0100
0200
0000
3870
1820
1420
2440
2240
2240
2140
4180
4080
E080
ENDCHAR
STARTCHAR nacute
ENCODING 324
SWIDTH 618 0
DWIDTH 9 0
BBX 8 11 1 0
BITMAP
04
08
10
00
64
2A
32
22
44
45
C6
ENDCHAR
STARTCHAR Ncommaaccent
ENCODING 325
SWIDTH 763 0
DWIDTH 11 0
BBX 12 15 0 -5
BITMAP
3870
1820
1420
2440
2240
2240
2140
4180
4080
E080
0000
0400
0400
0400
0800
ENDCHAR
STARTCHAR ncommaaccent
ENCODING 326
SWIDTH 618 0
DWIDTH 9 0
BBX 8 12 1 -5
BITMAP
64
2A
32
22
44
45
C6
00
08
08
08
10
ENDCHAR
STARTCHAR Ncaron
ENCODING 327
SWIDTH 763 0
DWIDTH 11 0
BBX 12 13 0 0
BITMAP
0580
0200
0000
3870
1820
1420
2440
2240
2240
2140
4180
4080
E080
ENDCHAR
STARTCHAR ncaron
ENCODING 328
SWIDTH 618 0
DWIDTH 9 0
BBX 8 10 1 0
BITMAP
2C
10
00
64
2A
32
22
44
45
C6
ENDCHAR
STARTCHAR napostrophe
ENCODING 329
SWIDTH 823 0
DWIDTH 12 0
BBX 10 10 2 0
BITMAP
4000
4000
4000
9900
0A80
0C80
0880
1100
1140
3180
ENDCHAR
STARTCHAR Eng
ENCODING 330
SWIDTH 763 0
DWIDTH 11 0
BBX 12 13 0 -3
BITMAP
3870
1820
1420
2440
2240
2240
2140
4180
4080
E080
0100
0500
0200
ENDCHAR
STARTCHAR eng
ENCODING 331
SWIDTH 618 0
DWIDTH 9 0
BBX 7 10 1 -3
BITMAP
64
2A
32
22
44
44
C4
08
28
10
ENDCHAR
STARTCHAR Omacron
ENCODING 332
SWIDTH 753 0
DWIDTH 10 0
BBX 9 12 2 0
BITMAP
1E00
0000
1E00
2100
4080
4080
8080
8080
8100
8100
4200
3C00
ENDCHAR
STARTCHAR omacron
ENCODING 333
SWIDTH 537 0
DWIDTH 7 0
BBX 7 9 1 0
BITMAP
3C
00
1C
62
42
82
84
8C
70
ENDCHAR
STARTCHAR Obreve
ENCODING 334
SWIDTH 753 0
DWIDTH 10 0
BBX 9 14 2 0
BITMAP
1200
1200
0C00
0000
1E00
2100
4080
4080
8080
8080
8100
8100
4200
3C00
ENDCHAR
STARTCHAR obreve
ENCODING 335
SWIDTH 537 0
DWIDTH 7 0
BBX 7 11 1 0
BITMAP
24
24
18
00
1C
62
42
82
84
8C
70
ENDCHAR
STARTCHAR Ohungarumlaut
ENCODING 336
SWIDTH 753 0
DWIDTH 10 0
BBX 9 14 2 0
BITMAP
1200
1400
1400
0000
1E00
2100
4080
4080
8080
8080
8100
8100
4200
3C00
ENDCHAR
STARTCHAR ohungarumlaut
ENCODING 337
SWIDTH 537 0
DWIDTH 7 0
BBX 7 11 1 0
BITMAP
24
28
28
00
1C
62
42
82
84
8C
70
ENDCHAR
STARTCHAR OE
ENCODING 338
SWIDTH 1020 0
DWIDTH 14 0
BBX 14 10 2 0
BITMAP
0FFC
3084
4084
4080
8108
81F0
8110
8100
4108
3FF0
ENDCHAR
STARTCHAR oe
ENCODING 339
SWIDTH 806 0
DWIDTH 11 0
BBX 11 7 1 0
BITMAP
38C0
4520
4660
8780
8400
8C40
7380
ENDCHAR
STARTCHAR Racute
ENCODING 340
SWIDTH 640 0
DWIDTH 9 0
BBX 9 14 0 0
BITMAP
0200
0400
0800
0000
3F00
1880
0880
1080
1100
1E00
2100
2100
2100
F080
ENDCHAR
STARTCHAR racute
ENCODING 341
SWIDTH 402 0
DWIDTH 6 0
BBX 6 11 1 0
BITMAP
08
10
20
00
6C
30
20
20
40
40
C0
ENDCHAR
STARTCHAR Rcommaaccent
ENCODING 342
SWIDTH 640 0
DWIDTH 9 0
BBX 9 15 0 -5
BITMAP
3F00
1880
0880
1080
1100
1E00
2100
2100
2100
F080
0000
0800
0800
0800
1000
ENDCHAR
STARTCHAR rcommaaccent
ENCODING 343
SWIDTH 402 0
DWIDTH 6 0
BBX 6 12 1 -5
BITMAP
6C
30
20
20
40
40
C0
00
40
40
40
80
ENDCHAR
STARTCHAR Rcaron
ENCODING 344
SWIDTH 640 0
DWIDTH 9 0
BBX 9 13 0 0
BITMAP
1600
0800
0000
3F00
1880
0880
1080
1100
1E00
2100
2100
2100
F080
ENDCHAR
STARTCHAR rcaron
ENCODING 345
SWIDTH 402 0
DWIDTH 6 0
BBX 6 10 1 0
BITMAP
2C
10
00
6C
30
20
20
40
40
C0
ENDCHAR
STARTCHAR Sacute
ENCODING 346
SWIDTH 533 0
DWIDTH 7 0
BBX 7 14 1 0
BITMAP
04
08
10
00
1C
22
24
20
10
08
04
84
84
78
ENDCHAR
STARTCHAR sacute
ENCODING 347
SWIDTH 389 0
DWIDTH 5 0
BBX 5 11 1 0
BITMAP
08
10
20
00
30
48
40
20
10
90
60
ENDCHAR
STARTCHAR Scircumflex
ENCODING 348
SWIDTH 533 0
DWIDTH 7 0
BBX 7 13 1 0
BITMAP
08
34
00
1C
22
24
20
10
08
04
84
84
78
ENDCHAR
STARTCHAR scircumflex
ENCODING 349
SWIDTH 389 0
DWIDTH 5 0
BBX 5 10 1 0
BITMAP
10
68
00
30
48
40
20
10
90
60
ENDCHAR
STARTCHAR Scedilla
ENCODING 350
SWIDTH 533 0
DWIDTH 7 0
BBX 7 13 1 -3
BITMAP
1C
22
24
20
10
08
04
84
84
78
20
10
20
ENDCHAR
STARTCHAR scedilla
ENCODING 351
SWIDTH 389 0
DWIDTH 5 0
BBX 5 10 1 -3
BITMAP
30
48
40
20
10
90
60
40
20
40
ENDCHAR
STARTCHAR Scaron
ENCODING 352
SWIDTH 533 0
DWIDTH 7 0
BBX 7 12 1 0
BITMAP
1E
00
18
66
44
40
30
08
04
84
88
70
ENDCHAR
STARTCHAR scaron
ENCODING 353
SWIDTH 389 0
DWIDTH 5 0
BBX 6 10 1 0
BITMAP
2C
10
00
30
48
40
20
10
90
60
ENDCHAR
STARTCHAR Tcommaaccent
ENCODING 354
SWIDTH 606 0
DWIDTH 8 0
BBX 9 13 1 -3
BITMAP
7F80
4880
8880
0800
0800
1000
1000
1000
1000
7800
1000
0800
1000
ENDCHAR
STARTCHAR tcommaaccent
ENCODING 355
SWIDTH 341 0
DWIDTH 5 0
BBX 4 12 2 -3
BITMAP
20
40
F0
40
40
40
80
A0
C0
80
40
80
ENDCHAR
STARTCHAR Tcaron
ENCODING 356
SWIDTH 606 0
DWIDTH 8 0
BBX 9 13 1 0
BITMAP
1600
0800
0000
7F80
4880
8880
0800
0800
1000
1000
1000
1000
7800
ENDCHAR
STARTCHAR tcaron
ENCODING 357
SWIDTH 540 0
DWIDTH 8 0
BBX 7 10 2 0
BITMAP
02
22
42
F4
40
40
40
80
A0
C0
ENDCHAR
STARTCHAR Tbar
ENCODING 358
SWIDTH 606 0
DWIDTH 8 0
BBX 9 10 1 0
BITMAP
7F80
4880
8880
0800
3F00
1000
1000
1000
1000
7800
ENDCHAR
STARTCHAR tbar
ENCODING 359
SWIDTH 341 0
DWIDTH 5 0
BBX 6 9 1 0
BITMAP
10
20
78
20
20
FC
40
50
60
ENDCHAR
STARTCHAR Utilde
ENCODING 360
SWIDTH 794 0
DWIDTH 11 0
BBX 10 12 2 0
BITMAP
3E00
0000
F3C0
4100
4100
4100
8100
8200
8200
8200
8400
7800
ENDCHAR
STARTCHAR utilde
ENCODING 361
SWIDTH 618 0
DWIDTH 9 0
BBX 7 9 2 0
BITMAP
7C
00
C4
44
44
88
98
AA
4C
ENDCHAR
STARTCHAR Umacron
ENCODING 362
SWIDTH 794 0
DWIDTH 11 0
BBX 10 12 2 0
BITMAP
1E00
0000
F3C0
4100
4100
4100
8100
8200
8200
8200
8400
7800
ENDCHAR
STARTCHAR umacron
ENCODING 363
SWIDTH 618 0
DWIDTH 9 0
BBX 7 9 2 0
BITMAP
78
00
C4
44
44
88
98
AA
4C
ENDCHAR
STARTCHAR Ubreve
ENCODING 364
SWIDTH 794 0
DWIDTH 11 0
BBX 10 14 2 0
BITMAP
1200
1200
0C00
0000
F3C0
4100
4100
4100
8100
8200
8200
8200
8400
7800
ENDCHAR
STARTCHAR ubreve
ENCODING 365
SWIDTH 618 0
DWIDTH 9 0
BBX 7 11 2 0
BITMAP
48
48
30
00
C4
44
44
88
98
AA
4C
ENDCHAR
STARTCHAR Uring
ENCODING 366
SWIDTH 794 0
DWIDTH 11 0
BBX 10 15 2 0
BITMAP
0800
1400
1400
0800
0000
F3C0
4100
4100
4100
8100
8200
8200
8200
8400
7800
ENDCHAR
STARTCHAR uring
ENCODING 367
SWIDTH 618 0
DWIDTH 9 0
BBX 7 12 2 0
BITMAP
10
28
28
10
00
C4
44
44
88
98
AA
4C
ENDCHAR
STARTCHAR Uhungarumlaut
ENCODING 368
SWIDTH 794 0
DWIDTH 11 0
BBX 10 14 2 0
BITMAP
1200
1400
1400
0000
F3C0
4100
4100
4100
8100
8200
8200
8200
8400
7800
ENDCHAR
STARTCHAR uhungarumlaut
ENCODING 369
SWIDTH 618 0
DWIDTH 9 0
BBX 7 11 2 0
BITMAP
48
50
50
00
C4
44
44
88
98
AA
4C
ENDCHAR
STARTCHAR Uogonek
ENCODING 370
SWIDTH 794 0
DWIDTH 11 0
BBX 10 13 2 -3
BITMAP
F3C0
4100
4100
4100
8100
8200
8200
8200
8400
7800
1000
1000
0C00
ENDCHAR
STARTCHAR uogonek
ENCODING 371
SWIDTH 618 0
DWIDTH 9 0
BBX 7 10 2 -3
BITMAP
C4
44
44
88
98
AA
5C
20
20
18
ENDCHAR
STARTCHAR Wcircumflex
ENCODING 372
SWIDTH 946 0
DWIDTH 13 0
BBX 14 13 2 0
BITMAP
0100
0680
0000
E01C
4208
4210
4610
4520
4920
4940
5140
3180
2100
ENDCHAR
STARTCHAR wcircumflex
ENCODING 373
SWIDTH 785 0
DWIDTH 11 0
BBX 10 10 2 0
BITMAP
0400
1A00
0000
C440
4440
4440
8840
9880
AB00
4400
ENDCHAR
STARTCHAR Ycircumflex
ENCODING 374
SWIDTH 591 0
DWIDTH 8 0
BBX 9 13 2 0
BITMAP
0400
1A00
0000
E380
4100
2200
2400
2800
1000
2000
2000
2000
F800
ENDCHAR
STARTCHAR ycircumflex
ENCODING 375
SWIDTH 468 0
DWIDTH 6 0
BBX 7 13 0 -3
BITMAP
08
34
00
62
12
12
14
14
14
18
10
A0
40
ENDCHAR
STARTCHAR Ydieresis
ENCODING 376
SWIDTH 591 0
DWIDTH 8 0
BBX 9 12 2 0
BITMAP
2400
0000
E380
4100
2200
2400
2800
1000
2000
2000
2000
F800
ENDCHAR
STARTCHAR Zacute
ENCODING 377
SWIDTH 622 0
DWIDTH 9 0
BBX 10 14 0 0
BITMAP
0100
0200
0400
0000
1FC0
1080
2100
0200
0400
0800
1000
2080
4100
FF00
ENDCHAR
STARTCHAR zacute
ENCODING 378
SWIDTH 468 0
DWIDTH 6 0
BBX 7 11 1 0
BITMAP
04
08
10
00
3E
44
08
10
22
64
98
ENDCHAR
STARTCHAR Zdotaccent
ENCODING 379
SWIDTH 622 0
DWIDTH 9 0
BBX 10 12 0 0
BITMAP
0400
0000
1FC0
1080
2100
0200
0400
0800
1000
2080
4100
FF00
ENDCHAR
STARTCHAR zdotaccent
ENCODING 380
SWIDTH 468 0
DWIDTH 6 0
BBX 7 9 1 0
BITMAP
10
00
3E
44
08
10
22
64
98
ENDCHAR
STARTCHAR Zcaron
ENCODING 381
SWIDTH 622 0
DWIDTH 9 0
BBX 10 12 0 0
BITMAP
0780
0000
1FC0
1080
2100
0200
0400
0800
1000
2080
4100
FF00
ENDCHAR
STARTCHAR zcaron
ENCODING 382
SWIDTH 468 0
DWIDTH 6 0
BBX 7 10 1 0
BITMAP
16
08
00
3E
44
08
10
22
64
98
ENDCHAR
STARTCHAR uni0186
ENCODING 390
SWIDTH 661 0
DWIDTH 9 0
BBX 8 10 2 0
BITMAP
1C
22
41
01
01
01
01
82
84
78
ENDCHAR
STARTCHAR uni0189
ENCODING 393
SWIDTH 770 0
DWIDTH 11 0
BBX 10 10 1 0
BITMAP
3F00
1080
1040
1040
1040
7C40
2040
2080
2100
FE00
ENDCHAR
STARTCHAR uni018E
ENCODING 398
SWIDTH 596 0
DWIDTH 8 0
BBX 9 10 0 0
BITMAP
7F80
8200
0200
4400
7800
8400
0800
8800
8800
FC00
ENDCHAR
STARTCHAR florin
ENCODING 402
SWIDTH 530 0
DWIDTH 7 0
BBX 8 12 1 -2
BITMAP
02
05
08
08
3E
10
10
10
10
20
A0
40
ENDCHAR
STARTCHAR uni0197
ENCODING 407
SWIDTH 345 0
DWIDTH 5 0
BBX 6 10 0 0
BITMAP
3C
10
10
10
FC
20
20
20
20
F0
ENDCHAR
STARTCHAR uni019A
ENCODING 410
SWIDTH 306 0
DWIDTH 4 0
BBX 6 10 1 0
BITMAP
10
30
10
20
FC
20
20
40
50
60
ENDCHAR
STARTCHAR uni019D
ENCODING 413
SWIDTH 763 0
DWIDTH 11 0
BBX 14 13 -2 -3
BITMAP
0E1C
0608
0508
0910
0890
0890
0850
1060
1020
1020
2000
A000
4000
ENDCHAR
STARTCHAR uni019F
ENCODING 415
SWIDTH 753 0
DWIDTH 10 0
BBX 9 10 2 0
BITMAP
1E00
2100
4080
4080
FF80
8080
8100
8100
4200
3C00
ENDCHAR
STARTCHAR Ohorn
ENCODING 416
SWIDTH 753 0
DWIDTH 10 0
BBX 10 10 2 0
BITMAP
1E40
2140
40C0
4080
8080
8080
8100
8100
4200
3C00
ENDCHAR
STARTCHAR ohorn
ENCODING 417
SWIDTH 537 0
DWIDTH 7 0
BBX 9 7 1 0
BITMAP
1C80
6280
4280
8300
8400
8C00
7000
ENDCHAR
STARTCHAR Uhorn
ENCODING 431
SWIDTH 794 0
DWIDTH 11 0
BBX 11 10 2 0
BITMAP
F3E0
4120
4120
4140
8100
8200
8200
8200
8400
7800
ENDCHAR
STARTCHAR uhorn
ENCODING 432
SWIDTH 618 0
DWIDTH 9 0
BBX 9 7 2 0
BITMAP
C480
4480
4480
8900
9800
AA00
4C00
ENDCHAR
STARTCHAR uni01B5
ENCODING 437
SWIDTH 622 0
DWIDTH 9 0
BBX 10 10 0 0
BITMAP
1FC0
1080
2100
0200
3F00
0800
1000
2080
4100
FF00
ENDCHAR
STARTCHAR uni01B6
ENCODING 438
SWIDTH 468 0
DWIDTH 6 0
BBX 7 7 1 0
BITMAP
3E
44
08
7E
22
64
98
ENDCHAR
STARTCHAR uni01BB
ENCODING 443
SWIDTH 530 0
DWIDTH 7 0
BBX 8 9 0 0
BITMAP
0E
11
21
01
FF
18
20
41
FE
ENDCHAR
STARTCHAR uni01BC
ENCODING 444
SWIDTH 530 0
DWIDTH 7 0
BBX 7 9 1 0
BITMAP
1E
20
40
78
44
04
84
88
70
ENDCHAR
STARTCHAR uni01C0
ENCODING 448
SWIDTH 270 0
DWIDTH 4 0
BBX 1 10 2 0
BITMAP
80
80
80
80
80
80
80
80
80
80
ENDCHAR
STARTCHAR uni01C2
ENCODING 450
SWIDTH 570 0
DWIDTH 8 0
BBX 7 10 1 -2
BITMAP
10
10
10
FE
10
10
FE
10
10
10
ENDCHAR
STARTCHAR uni01C3
ENCODING 451
SWIDTH 240 0
DWIDTH 3 0
BBX 4 10 1 0
BITMAP
10
20
20
20
20
40
40
00
40
C0
ENDCHAR
STARTCHAR uni01CD
ENCODING 461
SWIDTH 624 0
DWIDTH 9 0
BBX 9 13 0 0
BITMAP
0B00
0400
0000
0200
0200
0600
0A00
1100
1F00
2100
2100
4100
E380
ENDCHAR
STARTCHAR uni01CE
ENCODING 462
SWIDTH 561 0
DWIDTH 8 0
BBX 7 10 1 0
BITMAP
2C
10
00
1C
24
44
88
98
AA
4C
ENDCHAR
STARTCHAR uni01CF
ENCODING 463
SWIDTH 345 0
DWIDTH 5 0
BBX 6 13 0 0
BITMAP
2C
10
00
3C
10
10
10
10
20
20
20
20
F0
ENDCHAR
STARTCHAR uni01D0
ENCODING 464
SWIDTH 317 0
DWIDTH 4 0
BBX 4 10 2 0
BITMAP
B0
40
00
E0
40
40
40
80
A0
C0
ENDCHAR
STARTCHAR uni01D1
ENCODING 465
SWIDTH 753 0
DWIDTH 10 0
BBX 9 13 2 0
BITMAP
1600
0800
0000
1E00
2100
4080
4080
8080
8080
8100
8100
4200
3C00
ENDCHAR
STARTCHAR uni01D2
ENCODING 466
SWIDTH 537 0
DWIDTH 7 0
BBX 7 10 1 0
BITMAP
2C
10
00
1C
62
42
82
84
8C
70
ENDCHAR
STARTCHAR uni01D3
ENCODING 467
SWIDTH 794 0
DWIDTH 11 0
BBX 10 13 2 0
BITMAP
1600
0800
0000
F3C0
4100
4100
4100
8100
8200
8200
8200
8400
7800
ENDCHAR
STARTCHAR uni01D4
ENCODING 468
SWIDTH 618 0
DWIDTH 9 0
BBX 7 10 2 0
BITMAP
58
20
00
C4
44
44
88
98
AA
4C
ENDCHAR
STARTCHAR uni01D5
ENCODING 469
SWIDTH 794 0
DWIDTH 11 0
BBX 11 14 2 0
BITMAP
1E00
0000
0900
0000
F1E0
6080
4080
4080
4100
8100
8100
8200
4200
3C00
ENDCHAR
STARTCHAR uni01D6
ENCODING 470
SWIDTH 618 0
DWIDTH 9 0
BBX 7 11 2 0
BITMAP
78
00
24
00
C4
44
44
88
98
AA
4C
ENDCHAR
STARTCHAR uni01D7
ENCODING 471
SWIDTH 794 0
DWIDTH 11 0
BBX 11 16 2 0
BITMAP
0100
0200
0400
0000
0900
0000
F1E0
6080
4080
4080
4100
8100
8100
8200
4200
3C00
ENDCHAR
STARTCHAR uni01D8
ENCODING 472
SWIDTH 618 0
DWIDTH 9 0
BBX 7 13 2 0
BITMAP
08
10
20
00
24
00
C4
44
44
88
98
AA
4C
ENDCHAR
STARTCHAR uni01D9
ENCODING 473
SWIDTH 794 0
DWIDTH 11 0
BBX 11 15 2 0
BITMAP
0B00
0400
0000
0900
0000
F1E0
6080
4080
4080
4100
8100
8100
8200
4200
3C00
ENDCHAR
STARTCHAR uni01DA
ENCODING 474
SWIDTH 618 0
DWIDTH 9 0
BBX 7 12 2 0
BITMAP
2C
10
00
24
00
C4
44
44
88
98
AA
4C
ENDCHAR
STARTCHAR uni01DB
ENCODING 475
SWIDTH 794 0
DWIDTH 11 0
BBX 11 16 2 0
BITMAP
1000
0800
0400
0000
0900
0000
F1E0
6080
4080
4080
4100
8100
8100
8200
4200
3C00
ENDCHAR
STARTCHAR uni01DC
ENCODING 476
SWIDTH 618 0
DWIDTH 9 0
BBX 7 13 2 0
BITMAP
40
20
10
00
24
00
C4
44
44
88
98
AA
4C
ENDCHAR
STARTCHAR uni01DD
ENCODING 477
SWIDTH 453 0
DWIDTH 6 0
BBX 6 7 1 0
BITMAP
38
44
04
3C
C8
88
70
ENDCHAR
STARTCHAR uni01DE
ENCODING 478
SWIDTH 624 0
DWIDTH 9 0
BBX 9 14 0 0
BITMAP
0F00
0000
0480
0000
0300
0300
0500
0900
0900
1F00
2100
2100
4100
E380
ENDCHAR
STARTCHAR uni01DF
ENCODING 479
SWIDTH 561 0
DWIDTH 8 0
BBX 7 11 1 0
BITMAP
1E
00
12
00
1E
24
44
88
98
AA
4C
ENDCHAR
STARTCHAR uni01E0
ENCODING 480
SWIDTH 624 0
DWIDTH 9 0
BBX 9 14 0 0
BITMAP
0F00
0000
0400
0000
0200
0200
0600
0A00
1100
1F00
2100
2100
4100
E380
ENDCHAR
STARTCHAR uni01E1
ENCODING 481
SWIDTH 561 0
DWIDTH 8 0
BBX 7 11 1 0
BITMAP
3C
00
08
00
1C
24
44
88
98
AA
4C
ENDCHAR
STARTCHAR uni01E2
ENCODING 482
SWIDTH 880 0
DWIDTH 12 0
BBX 13 12 0 0
BITMAP
03C0
0000
03F8
0188
0288
0480
0508
0FF0
1110
2200
4208
EFF0
ENDCHAR
STARTCHAR uni01E3
ENCODING 483
SWIDTH 779 0
DWIDTH 11 0
BBX 10 9 1 0
BITMAP
0F00
0000
1F80
2240
4440
8580
8E00
9480
6300
ENDCHAR
STARTCHAR uni01E4
ENCODING 484
SWIDTH 709 0
DWIDTH 10 0
BBX 9 10 2 0
BITMAP
1E00
2100
4100
8000
8000
8700
8200
9F80
4200
3C00
ENDCHAR
STARTCHAR uni01E5
ENCODING 485
SWIDTH 499 0
DWIDTH 7 0
BBX 7 10 1 -3
BITMAP
3A
44
44
44
38
78
C4
FE
8C
70
ENDCHAR
STARTCHAR Gcaron
ENCODING 486
SWIDTH 709 0
DWIDTH 10 0
BBX 8 13 2 0
BITMAP
16
08
00
1E
21
41
80
80
87
82
82
42
3C
ENDCHAR
STARTCHAR gcaron
ENCODING 487
SWIDTH 499 0
DWIDTH 7 0
BBX 7 13 1 -3
BITMAP
2C
10
00
3A
44
44
44
38
78
C4
84
8C
70
ENDCHAR
STARTCHAR uni01E8
ENCODING 488
SWIDTH 650 0
DWIDTH 9 0
BBX 11 13 0 0
BITMAP
0B00
0400
0000
3DE0
1080
1300
1400
1800
2800
2400
2200
2200
F180
ENDCHAR
STARTCHAR uni01E9
ENCODING 489
SWIDTH 545 0
DWIDTH 8 0
BBX 7 13 1 0
BITMAP
58
20
00
10
60
20
46
58
50
50
52
54
88
ENDCHAR
STARTCHAR uni01EA
ENCODING 490
SWIDTH 753 0
DWIDTH 10 0
BBX 9 13 2 -3
BITMAP
1E00
2100
4080
4080
8080
8080
8100
8100
4200
3C00
1000
1000
0C00
ENDCHAR
STARTCHAR uni01EB
ENCODING 491
SWIDTH 537 0
DWIDTH 7 0
BBX 7 10 1 -3
BITMAP
1C
62
42
82
84
8C
70
20
20
18
ENDCHAR
STARTCHAR uni01EC
ENCODING 492
SWIDTH 753 0
DWIDTH 10 0
BBX 9 15 2 -3
BITMAP
1E00
0000
1E00
2100
4080
4080
8080
8080
8100
8100
4200
3C00
1000
1000
0C00
ENDCHAR
STARTCHAR uni01ED
ENCODING 493
SWIDTH 537 0
DWIDTH 7 0
BBX 7 12 1 -3
BITMAP
3C
00
1C
62
42
82
84
8C
70
20
20
18
ENDCHAR
STARTCHAR uni01F0
ENCODING 496
SWIDTH 309 0
DWIDTH 4 0
BBX 6 13 0 -3
BITMAP
2C
10
00
08
10
10
10
10
10
10
20
A0
40
ENDCHAR
STARTCHAR uni01F4
ENCODING 500
SWIDTH 709 0
DWIDTH 10 0
BBX 8 14 2 0
BITMAP
02
04
08
00
1E
21
41
80
80
87
82
82
42
3C
ENDCHAR
STARTCHAR uni01F5
ENCODING 501
SWIDTH 499 0
DWIDTH 7 0
BBX 7 14 1 -3
BITMAP
04
08
10
00
3A
44
44
44
38
78
C4
84
8C
70
ENDCHAR
STARTCHAR uni01F8
ENCODING 504
SWIDTH 763 0
DWIDTH 11 0
BBX 12 14 0 0
BITMAP
0800
0400
0200
0000
3870
1820
1420
2440
2240
2240
2140
4180
4080
E080
ENDCHAR
STARTCHAR uni01F9
ENCODING 505
SWIDTH 618 0
DWIDTH 9 0
BBX 8 11 1 0
BITMAP
20
10
08
00
64
2A
32
22
44
45
C6
ENDCHAR
STARTCHAR Aringacute
ENCODING 506
SWIDTH 624 0
DWIDTH 9 0
BBX 9 16 0 0
BITMAP
0100
0200
0400
0000
0200
0500
0200
0200
0600
0A00
1200
1E00
2200
2200
4100
E380
ENDCHAR
STARTCHAR aringacute
ENCODING 507
SWIDTH 561 0
DWIDTH 8 0
BBX 7 15 1 0
BITMAP
04
08
10
00
08
14
14
08
1E
24
44
88
98
AA
4C
ENDCHAR
STARTCHAR AEacute
ENCODING 508
SWIDTH 880 0
DWIDTH 12 0
BBX 13 14 0 0
BITMAP
0020
0040
0080
0000
03F8
0188
0288
0480
0508
0FF0
1110
2200
4208
EFF0
ENDCHAR
STARTCHAR aeacute
ENCODING 509
SWIDTH 779 0
DWIDTH 11 0
BBX 10 11 1 0
BITMAP
0100
0200
0400
0000
1F80
2240
4440
8580
8E00
9480
6300
ENDCHAR
STARTCHAR Oslashacute
ENCODING 510
SWIDTH 753 0
DWIDTH 10 0
BBX 9 14 2 0
BITMAP
0200
0400
0800
0000
1E80
2100
4280
4480
8880
9080
A100
A100
4200
BC00
ENDCHAR
STARTCHAR oslashacute
ENCODING 511
SWIDTH 537 0
DWIDTH 7 0
BBX 7 11 1 0
BITMAP
04
08
10
00
1A
64
4A
92
E4
8C
F0
ENDCHAR
STARTCHAR Scommaaccent
ENCODING 536
SWIDTH 533 0
DWIDTH 7 0
BBX 7 15 1 -5
BITMAP
1C
22
24
20
10
08
04
84
84
78
00
10
10
10
20
ENDCHAR
STARTCHAR scommaaccent
ENCODING 537
SWIDTH 389 0
DWIDTH 5 0
BBX 5 12 1 -5
BITMAP
30
48
40
20
10
90
60
00
20
20
20
40
ENDCHAR
STARTCHAR Tcommaaccent
ENCODING 538
SWIDTH 606 0
DWIDTH 8 0
BBX 9 15 1 -5
BITMAP
7F80
4880
8880
0800
0800
1000
1000
1000
1000
7800
0000
1000
1000
1000
2000
ENDCHAR
STARTCHAR tcommaaccent
ENCODING 539
SWIDTH 341 0
DWIDTH 5 0
BBX 4 14 2 -5
BITMAP
20
40
F0
40
40
40
80
A0
C0
00
40
40
40
80
ENDCHAR
STARTCHAR uni021E
ENCODING 542
SWIDTH 775 0
DWIDTH 11 0
BBX 12 13 0 0
BITMAP
0580
0200
0000
3CF0
1040
1040
1040
1040
1F80
2080
2080
2080
F3C0
ENDCHAR
STARTCHAR uni021F
ENCODING 543
SWIDTH 607 0
DWIDTH 8 0
BBX 8 13 1 0
BITMAP
58
20
00
10
60
20
24
2A
32
22
44
45
C6
ENDCHAR
STARTCHAR uni0226
ENCODING 550
SWIDTH 624 0
DWIDTH 9 0
BBX 9 12 0 0
BITMAP
0400
0000
0200
0200
0600
0A00
1100
1F00
2100
2100
4100
E380
ENDCHAR
STARTCHAR uni0227
ENCODING 551
SWIDTH 561 0
DWIDTH 8 0
BBX 7 9 1 0
BITMAP
08
00
1C
24
44
88
98
AA
4C
ENDCHAR
STARTCHAR uni0228
ENCODING 552
SWIDTH 596 0
DWIDTH 8 0
BBX 9 13 0 -3
BITMAP
1F80
0880
0880
0800
1080
0F00
1100
2000
2080
FF00
1000
0800
1000
ENDCHAR
STARTCHAR uni0229
ENCODING 553
SWIDTH 453 0
DWIDTH 6 0
BBX 6 10 1 -3
BITMAP
38
44
4C
F0
80
88
70
20
10
20
ENDCHAR
STARTCHAR uni022A
ENCODING 554
SWIDTH 753 0
DWIDTH 10 0
BBX 9 14 2 0
BITMAP
1E00
0000
0A00
0000
1E00
2100
4080
4080
8080
8080
8100
8100
4200
3C00
ENDCHAR
STARTCHAR uni022B
ENCODING 555
SWIDTH 537 0
DWIDTH 7 0
BBX 7 11 1 0
BITMAP
3C
00
12
00
1C
22
42
82
84
8C
70
ENDCHAR
STARTCHAR uni022C
ENCODING 556
SWIDTH 753 0
DWIDTH 10 0
BBX 9 14 2 0
BITMAP
1E00
0000
1E80
0100
1C00
2300
4080
4080
8080
8080
8100
8100
4200
3C00
ENDCHAR
STARTCHAR uni022D
ENCODING 557
SWIDTH 537 0
DWIDTH 7 0
BBX 7 12 1 0
BITMAP
3C
00
02
3C
00
1C
62
42
82
84
8C
70
ENDCHAR
STARTCHAR uni022E
ENCODING 558
SWIDTH 753 0
DWIDTH 10 0
BBX 9 12 2 0
BITMAP
0800
0000
1E00
2100
4080
4080
8080
8080
8100
8100
4200
3C00
ENDCHAR
STARTCHAR uni022F
ENCODING 559
SWIDTH 537 0
DWIDTH 7 0
BBX 7 9 1 0
BITMAP
10
00
1C
62
42
82
84
8C
70
ENDCHAR
STARTCHAR uni0230
ENCODING 560
SWIDTH 753 0
DWIDTH 10 0
BBX 9 14 2 0
BITMAP
1E00
0000
0800
0000
1E00
2100
4080
4080
8080
8080
8100
8100
4200
3C00
ENDCHAR
STARTCHAR uni0231
ENCODING 561
SWIDTH 537 0
DWIDTH 7 0
BBX 7 11 1 0
BITMAP
3C
00
10
00
1C
62
42
82
84
8C
70
ENDCHAR
STARTCHAR uni0232
ENCODING 562
SWIDTH 591 0
DWIDTH 8 0
BBX 9 12 2 0
BITMAP
1E00
0000
E380
4100
2200
2400
2800
1000
2000
2000
2000
F800
ENDCHAR
STARTCHAR uni0233
ENCODING 563
SWIDTH 468 0
DWIDTH 6 0
BBX 7 12 0 -3
BITMAP
3C
00
62
12
12
14
14
14
18
10
A0
40
ENDCHAR
STARTCHAR uni0250
ENCODING 592
SWIDTH 561 0
DWIDTH 8 0
BBX 7 7 1 0
BITMAP
64
AA
32
22
44
48
70
ENDCHAR
STARTCHAR uni0259
ENCODING 601
SWIDTH 453 0
DWIDTH 6 0
BBX 6 7 1 0
BITMAP
38
44
04
3C
C8
88
70
ENDCHAR
STARTCHAR uni025F
ENCODING 607
SWIDTH 315 0
DWIDTH 4 0
BBX 8 13 -1 -6
BITMAP
02
05
04
04
08
08
08
08
10
7C
10
90
60
ENDCHAR
STARTCHAR uni0265
ENCODING 613
SWIDTH 607 0
DWIDTH 8 0
BBX 8 10 1 -3
BITMAP
63
A2
22
44
4C
54
24
04
06
08
ENDCHAR
STARTCHAR uni0275
ENCODING 629
SWIDTH 537 0
DWIDTH 7 0
BBX 7 7 1 0
BITMAP
1C
62
42
FE
84
8C
70
ENDCHAR
STARTCHAR uni0279
ENCODING 633
SWIDTH 402 0
DWIDTH 6 0
BBX 6 7 1 0
BITMAP
0C
08
08
10
10
30
D8
ENDCHAR
STARTCHAR uni0287
ENCODING 647
SWIDTH 341 0
DWIDTH 5 0
BBX 4 9 2 0
BITMAP
30
50
10
20
20
20
F0
20
40
ENDCHAR
STARTCHAR uni0289
ENCODING 649
SWIDTH 618 0
DWIDTH 9 0
BBX 7 7 2 0
BITMAP
C4
44
44
FE
98
AA
4C
ENDCHAR
STARTCHAR uni028C
ENCODING 652
SWIDTH 510 0
DWIDTH 7 0
BBX 6 7 2 0
BITMAP
08
34
44
44
88
88
8C
ENDCHAR
STARTCHAR uni028D
ENCODING 653
SWIDTH 785 0
DWIDTH 11 0
BBX 10 7 2 0
BITMAP
0880
3540
4640
8440
8880
8880
88C0
ENDCHAR
STARTCHAR uni028E
ENCODING 654
SWIDTH 468 0
DWIDTH 6 0
BBX 7 10 0 0
BITMAP
04
0A
10
30
50
50
50
90
90
8C
ENDCHAR
STARTCHAR uni029E
ENCODING 670
SWIDTH 545 0
DWIDTH 8 0
BBX 7 10 1 -3
BITMAP
22
54
94
14
14
34
C4
08
0C
10
ENDCHAR
STARTCHAR uni02BB
ENCODING 699
SWIDTH 216 0
DWIDTH 3 0
BBX 2 4 2 7
BITMAP
40
80
80
80
ENDCHAR
STARTCHAR afii57929
ENCODING 700
SWIDTH 216 0
DWIDTH 3 0
BBX 2 4 2 6
BITMAP
40
40
40
80
ENDCHAR
STARTCHAR afii64937
ENCODING 701
SWIDTH 216 0
DWIDTH 3 0
BBX 2 4 2 6
BITMAP
80
80
80
40
ENDCHAR
STARTCHAR circumflex
ENCODING 710
SWIDTH 400 0
DWIDTH 6 0
BBX 4 2 3 8
BITMAP
20
D0
ENDCHAR
STARTCHAR caron
ENCODING 711
SWIDTH 400 0
DWIDTH 6 0
BBX 4 2 4 8
BITMAP
B0
40
ENDCHAR
STARTCHAR uni02C8
ENCODING 712
SWIDTH 216 0
DWIDTH 3 0
BBX 1 4 3 6
BITMAP
80
80
80
80
ENDCHAR
STARTCHAR macron
ENCODING 713
SWIDTH 400 0
DWIDTH 6 0
BBX 4 1 3 8
BITMAP
F0
ENDCHAR
STARTCHAR uni02CA
ENCODING 714
SWIDTH 400 0
DWIDTH 6 0
BBX 3 3 3 7
BITMAP
20
40
80
ENDCHAR
STARTCHAR uni02CB
ENCODING 715
SWIDTH 400 0
DWIDTH 6 0
BBX 3 3 3 7
BITMAP
80
40
20
ENDCHAR
STARTCHAR uni02CD
ENCODING 717
SWIDTH 400 0
DWIDTH 6 0
BBX 4 1 3 -2
BITMAP
F0
ENDCHAR
STARTCHAR uni02CE
ENCODING 718
SWIDTH 400 0
DWIDTH 6 0
BBX 3 3 3 -4
BITMAP
80
40
20
ENDCHAR
STARTCHAR uni02CF
ENCODING 719
SWIDTH 400 0
DWIDTH 6 0
BBX 3 3 3 -4
BITMAP
20
40
80
ENDCHAR
STARTCHAR breve
ENCODING 728
SWIDTH 400 0
DWIDTH 6 0
BBX 4 3 3 7
BITMAP
90
90
60
ENDCHAR
STARTCHAR dotaccent
ENCODING 729
SWIDTH 402 0
DWIDTH 6 0
BBX 1 1 4 8
BITMAP
80
ENDCHAR
STARTCHAR ring
ENCODING 730
SWIDTH 400 0
DWIDTH 6 0
BBX 3 4 3 7
BITMAP
40
A0
A0
40
ENDCHAR
STARTCHAR ogonek
ENCODING 731
SWIDTH 350 0
DWIDTH 5 0
BBX 3 4 1 -3
BITMAP
40
80
80
60
ENDCHAR
STARTCHAR tilde
ENCODING 732
SWIDTH 400 0
DWIDTH 6 0
BBX 5 1 2 8
BITMAP
F8
ENDCHAR
STARTCHAR hungarumlaut
ENCODING 733
SWIDTH 400 0
DWIDTH 6 0
BBX 4 3 3 7
BITMAP
90
A0
A0
ENDCHAR
STARTCHAR uni02EE
ENCODING 750
SWIDTH 402 0
DWIDTH 6 0
BBX 5 4 2 7
BITMAP
48
58
50
90
ENDCHAR
STARTCHAR uni037E
ENCODING 894
SWIDTH 265 0
DWIDTH 4 0
BBX 3 8 1 -1
BITMAP
20
60
00
00
40
40
40
80
ENDCHAR
STARTCHAR tonos
ENCODING 900
SWIDTH 400 0
DWIDTH 6 0
BBX 3 3 3 7
BITMAP
20
40
80
ENDCHAR
STARTCHAR dieresistonos
ENCODING 901
SWIDTH 400 0
DWIDTH 6 0
BBX 4 5 3 8
BITMAP
10
20
40
00
90
ENDCHAR
STARTCHAR anoteleia
ENCODING 903
SWIDTH 265 0
DWIDTH 4 0
BBX 1 1 2 3
BITMAP
80
ENDCHAR
STARTCHAR mu
ENCODING 956
SWIDTH 618 0
DWIDTH 9 0
BBX 8 10 1 -3
BITMAP
52
22
22
24
4C
55
A6
80
80
80
ENDCHAR
STARTCHAR uni1E00
ENCODING 7680
SWIDTH 624 0
DWIDTH 9 0
BBX 9 15 0 -5
BITMAP
0200
0200
0600
0A00
1100
1F00
2100
2100
4100
E380
0000
0800
1400
1400
0800
ENDCHAR
STARTCHAR uni1E01
ENCODING 7681
SWIDTH 561 0
DWIDTH 8 0
BBX 7 12 1 -5
BITMAP
1C
24
44
88
98
AA
4C
00
10
28
28
10
ENDCHAR
STARTCHAR uni1E02
ENCODING 7682
SWIDTH 632 0
DWIDTH 9 0
BBX 8 12 1 0
BITMAP
08
00
7E
11
21
22
3C
22
41
41
42
FC
ENDCHAR
STARTCHAR uni1E03
ENCODING 7683
SWIDTH 559 0
DWIDTH 8 0
BBX 7 12 1 0
BITMAP
20
00
10
60
20
4C
52
62
42
44
4C
B0
ENDCHAR
STARTCHAR uni1E04
ENCODING 7684
SWIDTH 632 0
DWIDTH 9 0
BBX 8 12 1 -2
BITMAP
7E
11
21
22
3C
22
41
41
42
FC
00
10
ENDCHAR
STARTCHAR uni1E05
ENCODING 7685
SWIDTH 559 0
DWIDTH 8 0
BBX 7 12 1 -2
BITMAP
10
60
20
4C
52
62
42
44
4C
B0
00
10
ENDCHAR
STARTCHAR uni1E06
ENCODING 7686
SWIDTH 632 0
DWIDTH 9 0
BBX 8 12 1 -2
BITMAP
7E
11
21
22
3C
22
41
41
42
FC
00
3C
ENDCHAR
STARTCHAR uni1E07
ENCODING 7687
SWIDTH 559 0
DWIDTH 8 0
BBX 7 12 1 -2
BITMAP
10
60
20
4C
52
62
42
44
4C
B0
00
78
ENDCHAR
STARTCHAR uni1E08
ENCODING 7688
SWIDTH 661 0
DWIDTH 9 0
BBX 8 18 2 -4
BITMAP
04
08
10
00
1E
21
41
80
80
80
80
82
44
38
20
20
10
20
ENDCHAR
STARTCHAR uni1E09
ENCODING 7689
SWIDTH 441 0
DWIDTH 6 0
BBX 6 15 1 -4
BITMAP
08
10
20
00
38
44
40
80
80
88
70
40
40
20
C0
ENDCHAR
STARTCHAR uni1E0A
ENCODING 7690
SWIDTH 763 0
DWIDTH 11 0
BBX 10 12 1 0
BITMAP
0400
0000
3F00
1080
1040
1040
1040
2040
2080
2080
2300
FC00
ENDCHAR
STARTCHAR uni1E0B
ENCODING 7691
SWIDTH 587 0
DWIDTH 8 0
BBX 8 12 1 0
BITMAP
02
00
01
03
01
1E
22
42
84
8C
95
66
ENDCHAR
STARTCHAR uni1E0C
ENCODING 7692
SWIDTH 763 0
DWIDTH 11 0
BBX 10 12 1 -2
BITMAP
3F00
1080
1040
1040
1040
2040
2080
2080
2300
FC00
0000
0800
ENDCHAR
STARTCHAR uni1E0D
ENCODING 7693
SWIDTH 587 0
DWIDTH 8 0
BBX 8 12 1 -2
BITMAP
01
03
01
1E
22
42
84
8C
95
66
00
10
ENDCHAR
STARTCHAR uni1E0E
ENCODING 7694
SWIDTH 763 0
DWIDTH 11 0
BBX 10 12 1 -2
BITMAP
3F00
1080
1040
1040
1040
2040
2080
2080
2300
FC00
0000
3C00
ENDCHAR
STARTCHAR uni1E0F
ENCODING 7695
SWIDTH 587 0
DWIDTH 8 0
BBX 8 12 1 -2
BITMAP
01
03
01
1E
22
42
84
8C
95
66
00
3C
ENDCHAR
STARTCHAR uni1E10
ENCODING 7696
SWIDTH 763 0
DWIDTH 11 0
BBX 10 13 1 -3
BITMAP
3F00
1080
1040
1040
1040
2040
2080
2080
2300
FC00
1000
0800
1000
ENDCHAR
STARTCHAR uni1E11
ENCODING 7697
SWIDTH 587 0
DWIDTH 8 0
BBX 8 13 1 -3
BITMAP
01
03
01
1E
22
42
84
8C
95
6E
10
08
10
ENDCHAR
STARTCHAR uni1E12
ENCODING 7698
SWIDTH 763 0
DWIDTH 11 0
BBX 10 13 1 -3
BITMAP
3F00
1080
1040
1040
1040
2040
2080
2080
2300
FC00
0000
0800
3400
ENDCHAR
STARTCHAR uni1E13
ENCODING 7699
SWIDTH 587 0
DWIDTH 8 0
BBX 8 13 1 -3
BITMAP
01
03
01
1E
22
42
84
8C
95
66
00
08
34
ENDCHAR
STARTCHAR uni1E14
ENCODING 7700
SWIDTH 596 0
DWIDTH 8 0
BBX 9 16 0 0
BITMAP
1000
0800
0400
0000
0F00
0000
1F80
0880
0880
0800
1080
0F00
1100
2000
2080
FF00
ENDCHAR
STARTCHAR uni1E15
ENCODING 7701
SWIDTH 453 0
DWIDTH 6 0
BBX 6 13 1 0
BITMAP
40
20
10
00
78
00
38
44
4C
F0
80
88
70
ENDCHAR
STARTCHAR uni1E16
ENCODING 7702
SWIDTH 596 0
DWIDTH 8 0
BBX 9 16 0 0
BITMAP
0100
0200
0400
0000
0F00
0000
1F80
0880
0880
0800
1080
0F00
1100
2000
2080
FF00
ENDCHAR
STARTCHAR uni1E17
ENCODING 7703
SWIDTH 453 0
DWIDTH 6 0
BBX 6 13 1 0
BITMAP
08
10
20
00
78
00
38
44
4C
F0
80
88
70
ENDCHAR
STARTCHAR uni1E18
ENCODING 7704
SWIDTH 596 0
DWIDTH 8 0
BBX 9 13 0 -3
BITMAP
1F80
0880
0880
0800
1080
0F00
1100
2000
2080
FF00
0000
0800
3400
ENDCHAR
STARTCHAR uni1E19
ENCODING 7705
SWIDTH 453 0
DWIDTH 6 0
BBX 6 10 1 -3
BITMAP
38
44
4C
F0
80
88
70
00
20
D0
ENDCHAR
STARTCHAR uni1E1A
ENCODING 7706
SWIDTH 596 0
DWIDTH 8 0
BBX 9 12 0 -2
BITMAP
1F80
0880
0880
0800
1080
0F00
1100
2000
2080
FF00
0000
3E00
ENDCHAR
STARTCHAR uni1E1B
ENCODING 7707
SWIDTH 453 0
DWIDTH 6 0
BBX 6 9 1 -2
BITMAP
38
44
4C
F0
80
88
70
00
F8
ENDCHAR
STARTCHAR uni1E1C
ENCODING 7708
SWIDTH 596 0
DWIDTH 8 0
BBX 9 17 0 -3
BITMAP
0900
0900
0600
0000
1F80
0880
0880
0800
1080
0F00
1100
2000
2080
FF00
1000
0800
1000
ENDCHAR
STARTCHAR uni1E1D
ENCODING 7709
SWIDTH 453 0
DWIDTH 6 0
BBX 6 14 1 -3
BITMAP
48
48
30
00
38
44
4C
F0
80
88
70
20
10
20
ENDCHAR
STARTCHAR uni1E1E
ENCODING 7710
SWIDTH 571 0
DWIDTH 8 0
BBX 9 12 0 0
BITMAP
0400
0000
1F80
0880
0880
0800
1080
0F00
1100
2000
2000
F000
ENDCHAR
STARTCHAR uni1E1F
ENCODING 7711
SWIDTH 315 0
DWIDTH 4 0
BBX 8 15 -1 -3
BITMAP
08
00
06
09
08
3E
08
10
10
10
10
20
20
A0
40
ENDCHAR
STARTCHAR uni1E20
ENCODING 7712
SWIDTH 709 0
DWIDTH 10 0
BBX 8 12 2 0
BITMAP
1E
00
1E
21
41
80
80
87
82
82
42
3C
ENDCHAR
STARTCHAR uni1E21
ENCODING 7713
SWIDTH 499 0
DWIDTH 7 0
BBX 7 12 1 -3
BITMAP
3C
00
3A
44
44
44
38
78
C4
84
8C
70
ENDCHAR
STARTCHAR uni1E22
ENCODING 7714
SWIDTH 775 0
DWIDTH 11 0
BBX 12 12 0 0
BITMAP
0200
0000
3CF0
1040
1040
1040
1040
1F80
2080
2080
2080
F3C0
ENDCHAR
STARTCHAR uni1E23
ENCODING 7715
SWIDTH 607 0
DWIDTH 8 0
BBX 8 12 1 0
BITMAP
10
00
10
60
20
24
2A
32
22
44
45
C6
ENDCHAR
STARTCHAR uni1E24
ENCODING 7716
SWIDTH 775 0
DWIDTH 11 0
BBX 12 12 0 -2
BITMAP
3CF0
1040
1040
1040
1040
1F80
2080
2080
2080
F3C0
0000
0400
ENDCHAR
STARTCHAR uni1E25
ENCODING 7717
SWIDTH 607 0
DWIDTH 8 0
BBX 8 12 1 -2
BITMAP
10
60
20
24
2A
32
22
44
45
C6
00
10
ENDCHAR
STARTCHAR uni1E26
ENCODING 7718
SWIDTH 775 0
DWIDTH 11 0
BBX 12 12 0 0
BITMAP
0480
0000
3CF0
1040
1040
1040
1040
1F80
2080
2080
2080
F3C0
ENDCHAR
STARTCHAR uni1E27
ENCODING 7719
SWIDTH 607 0
DWIDTH 8 0
BBX 8 12 1 0
BITMAP
48
00
10
60
20
24
2A
32
22
44
45
C6
ENDCHAR
STARTCHAR uni1E28
ENCODING 7720
SWIDTH 775 0
DWIDTH 11 0
BBX 12 13 0 -3
BITMAP
3CF0
1040
1040
1040
1040
1F80
2080
2080
2080
F7C0
0800
0400
0800
ENDCHAR
STARTCHAR uni1E29
ENCODING 7721
SWIDTH 607 0
DWIDTH 8 0
BBX 8 13 1 -3
BITMAP
10
60
20
24
2A
32
22
44
45
CE
10
08
10
ENDCHAR
STARTCHAR uni1E2A
ENCODING 7722
SWIDTH 775 0
DWIDTH 11 0
BBX 12 14 0 -4
BITMAP
3CF0
1040
1040
1040
1040
1F80
2080
2080
2080
F3C0
0000
1200
1200
0C00
ENDCHAR
STARTCHAR uni1E2B
ENCODING 7723
SWIDTH 607 0
DWIDTH 8 0
BBX 8 14 1 -4
BITMAP
10
60
20
24
2A
32
22
44
45
C6
00
24
24
18
ENDCHAR
STARTCHAR uni1E2C
ENCODING 7724
SWIDTH 345 0
DWIDTH 5 0
BBX 6 12 0 -2
BITMAP
3C
10
10
10
10
20
20
20
20
F0
00
F8
ENDCHAR
STARTCHAR uni1E2D
ENCODING 7725
SWIDTH 317 0
DWIDTH 4 0
BBX 5 12 1 -2
BITMAP
10
10
00
70
20
20
20
40
50
60
00
F8
ENDCHAR
STARTCHAR uni1E2E
ENCODING 7726
SWIDTH 345 0
DWIDTH 5 0
BBX 7 16 0 0
BITMAP
04
08
10
00
12
00
1C
08
10
10
10
10
10
20
20
F0
ENDCHAR
STARTCHAR uni1E2F
ENCODING 7727
SWIDTH 317 0
DWIDTH 4 0
BBX 4 13 2 0
BITMAP
10
20
40
00
90
00
A0
40
40
40
80
A0
C0
ENDCHAR
STARTCHAR uni1E30
ENCODING 7728
SWIDTH 650 0
DWIDTH 9 0
BBX 11 14 0 0
BITMAP
0100
0200
0400
0000
3DE0
1080
1300
1400
1800
2800
2400
2200
2200
F180
ENDCHAR
STARTCHAR uni1E31
ENCODING 7729
SWIDTH 545 0
DWIDTH 8 0
BBX 7 14 1 0
BITMAP
08
10
20
00
10
60
20
46
58
50
50
52
54
88
ENDCHAR
STARTCHAR uni1E32
ENCODING 7730
SWIDTH 650 0
DWIDTH 9 0
BBX 11 12 0 -2
BITMAP
3DE0
1080
1300
1400
1800
2800
2400
2200
2200
F180
0000
0800
ENDCHAR
STARTCHAR uni1E33
ENCODING 7731
SWIDTH 545 0
DWIDTH 8 0
BBX 7 12 1 -2
BITMAP
10
60
20
46
58
50
50
52
54
88
00
10
ENDCHAR
STARTCHAR uni1E34
ENCODING 7732
SWIDTH 650 0
DWIDTH 9 0
BBX 11 12 0 -2
BITMAP
3DE0
1080
1300
1400
1800
2800
2400
2200
2200
F180
0000
1E00
ENDCHAR
STARTCHAR uni1E35
ENCODING 7733
SWIDTH 545 0
DWIDTH 8 0
BBX 7 12 1 -2
BITMAP
10
60
20
46
58
50
50
52
54
88
00
78
ENDCHAR
STARTCHAR uni1E36
ENCODING 7734
SWIDTH 565 0
DWIDTH 8 0
BBX 8 12 0 -2
BITMAP
3C
10
10
10
10
20
20
21
21
FE
00
08
ENDCHAR
STARTCHAR uni1E37
ENCODING 7735
SWIDTH 306 0
DWIDTH 4 0
BBX 3 12 2 -2
BITMAP
20
60
20
40
40
40
40
80
A0
C0
00
40
ENDCHAR
STARTCHAR uni1E38
ENCODING 7736
SWIDTH 565 0
DWIDTH 8 0
BBX 8 14 0 -2
BITMAP
3C
00
3C
10
10
10
10
20
20
21
21
FE
00
08
ENDCHAR
STARTCHAR uni1E39
ENCODING 7737
SWIDTH 306 0
DWIDTH 4 0
BBX 4 14 2 -2
BITMAP
F0
00
20
60
20
40
40
40
40
80
A0
C0
00
40
ENDCHAR
STARTCHAR uni1E3A
ENCODING 7738
SWIDTH 565 0
DWIDTH 8 0
BBX 8 12 0 -2
BITMAP
3C
10
10
10
10
20
20
21
21
FE
00
3C
ENDCHAR
STARTCHAR uni1E3B
ENCODING 7739
SWIDTH 306 0
DWIDTH 4 0
BBX 4 12 1 -2
BITMAP
10
30
10
20
20
20
20
40
50
60
00
F0
ENDCHAR
STARTCHAR uni1E3C
ENCODING 7740
SWIDTH 565 0
DWIDTH 8 0
BBX 8 13 0 -3
BITMAP
3C
10
10
10
10
20
20
21
21
FE
00
08
34
ENDCHAR
STARTCHAR uni1E3D
ENCODING 7741
SWIDTH 306 0
DWIDTH 4 0
BBX 4 13 1 -3
BITMAP
10
30
10
20
20
20
20
40
50
60
00
20
D0
ENDCHAR
STARTCHAR uni1E3E
ENCODING 7742
SWIDTH 920 0
DWIDTH 13 0
BBX 14 14 0 0
BITMAP
0040
0080
0100
0000
301C
1810
1830
2850
2490
24A0
2520
4620
4420
E4F0
ENDCHAR
STARTCHAR uni1E3F
ENCODING 7743
SWIDTH 912 0
DWIDTH 13 0
BBX 12 11 1 0
BITMAP
0100
0200
0400
0000
6440
2AA0
3320
2220
4440
4450
C460
ENDCHAR
STARTCHAR uni1E40
ENCODING 7744
SWIDTH 920 0
DWIDTH 13 0
BBX 14 12 0 0
BITMAP
0100
0000
301C
1810
1830
2850
2490
24A0
2520
4620
4420
E4F0
ENDCHAR
STARTCHAR uni1E41
ENCODING 7745
SWIDTH 912 0
DWIDTH 13 0
BBX 12 9 1 0
BITMAP
0400
0000
6440
2AA0
3320
2220
4440
4450
C460
ENDCHAR
STARTCHAR uni1E42
ENCODING 7746
SWIDTH 920 0
DWIDTH 13 0
BBX 14 12 0 -2
BITMAP
301C
1810
1830
2850
2490
24A0
2520
4620
4420
E4F0
0000
0200
ENDCHAR
STARTCHAR uni1E43
ENCODING 7747
SWIDTH 912 0
DWIDTH 13 0
BBX 12 9 1 -2
BITMAP
6440
2AA0
3320
2220
4440
4450
C460
0000
0200
ENDCHAR
STARTCHAR uni1E44
ENCODING 7748
SWIDTH 763 0
DWIDTH 11 0
BBX 12 12 0 0
BITMAP
0200
0000
3870
1820
1420
2440
2240
2240
2140
4180
4080
E080
ENDCHAR
STARTCHAR uni1E45
ENCODING 7749
SWIDTH 618 0
DWIDTH 9 0
BBX 8 9 1 0
BITMAP
10
00
64
2A
32
22
44
45
C6
ENDCHAR
STARTCHAR uni1E46
ENCODING 7750
SWIDTH 763 0
DWIDTH 11 0
BBX 12 12 0 -2
BITMAP
3870
1820
1420
2440
2240
2240
2140
4180
4080
E080
0000
0400
ENDCHAR
STARTCHAR uni1E47
ENCODING 7751
SWIDTH 618 0
DWIDTH 9 0
BBX 8 9 1 -2
BITMAP
64
2A
32
22
44
45
C6
00
08
ENDCHAR
STARTCHAR uni1E48
ENCODING 7752
SWIDTH 763 0
DWIDTH 11 0
BBX 12 12 0 -2
BITMAP
3870
1820
1420
2440
2240
2240
2140
4180
4080
E080
0000
1E00
ENDCHAR
STARTCHAR uni1E49
ENCODING 7753
SWIDTH 618 0
DWIDTH 9 0
BBX 8 9 1 -2
BITMAP
64
2A
32
22
44
45
C6
00
3C
ENDCHAR
STARTCHAR uni1E4A
ENCODING 7754
SWIDTH 763 0
DWIDTH 11 0
BBX 12 13 0 -3
BITMAP
3870
1820
1420
2440
2240
2240
2140
4180
4080
E080
0000
0400
1A00
ENDCHAR
STARTCHAR uni1E4B
ENCODING 7755
SWIDTH 618 0
DWIDTH 9 0
BBX 8 10 1 -3
BITMAP
64
2A
32
22
44
45
C6
00
08
34
ENDCHAR
STARTCHAR uni1E4C
ENCODING 7756
SWIDTH 753 0
DWIDTH 10 0
BBX 9 16 2 0
BITMAP
0200
0400
0800
0000
1E80
0100
1C00
2300
4080
4080
8080
8080
8100
8100
4200
3C00
ENDCHAR
STARTCHAR uni1E4D
ENCODING 7757
SWIDTH 537 0
DWIDTH 7 0
BBX 7 14 1 0
BITMAP
04
08
10
00
02
3C
00
1C
62
42
82
84
8C
70
ENDCHAR
STARTCHAR uni1E4E
ENCODING 7758
SWIDTH 753 0
DWIDTH 10 0
BBX 9 14 2 0
BITMAP
1200
0000
1E80
0100
1C00
2300
4080
4080
8080
8080
8100
8100
4200
3C00
ENDCHAR
STARTCHAR uni1E4F
ENCODING 7759
SWIDTH 537 0
DWIDTH 7 0
BBX 7 12 1 0
BITMAP
24
00
02
3C
00
1C
62
42
82
84
8C
70
ENDCHAR
STARTCHAR uni1E50
ENCODING 7760
SWIDTH 753 0
DWIDTH 10 0
BBX 9 16 2 0
BITMAP
1000
0800
0400
0000
1E00
0000
1E00
2100
4080
4080
8080
8080
8100
8100
4200
3C00
ENDCHAR
STARTCHAR uni1E51
ENCODING 7761
SWIDTH 537 0
DWIDTH 7 0
BBX 7 13 1 0
BITMAP
20
10
08
00
3C
00
1C
62
42
82
84
8C
70
ENDCHAR
STARTCHAR uni1E52
ENCODING 7762
SWIDTH 753 0
DWIDTH 10 0
BBX 9 16 2 0
BITMAP
0200
0400
0800
0000
1E00
0000
1E00
2100
4080
4080
8080
8080
8100
8100
4200
3C00
ENDCHAR
STARTCHAR uni1E53
ENCODING 7763
SWIDTH 537 0
DWIDTH 7 0
BBX 7 13 1 0
BITMAP
04
08
10
00
3C
00
1C
62
42
82
84
8C
70
ENDCHAR
STARTCHAR uni1E54
ENCODING 7764
SWIDTH 614 0
DWIDTH 9 0
BBX 9 14 0 0
BITMAP
0100
0200
0400
0000
1E00
0980
0880
0880
1100
0E00
1000
2000
2000
F000
ENDCHAR
STARTCHAR uni1E55
ENCODING 7765
SWIDTH 590 0
DWIDTH 8 0
BBX 7 14 1 -3
BITMAP
04
08
10
00
AC
52
62
42
44
4C
B0
80
80
80
ENDCHAR
STARTCHAR uni1E56
ENCODING 7766
SWIDTH 614 0
DWIDTH 9 0
BBX 9 12 0 0
BITMAP
0400
0000
1E00
0980
0880
0880
1100
0E00
1000
2000
2000
F000
ENDCHAR
STARTCHAR uni1E57
ENCODING 7767
SWIDTH 590 0
DWIDTH 8 0
BBX 7 12 1 -3
BITMAP
10
00
AC
52
62
42
44
4C
B0
80
80
80
ENDCHAR
STARTCHAR uni1E58
ENCODING 7768
SWIDTH 640 0
DWIDTH 9 0
BBX 9 12 0 0
BITMAP
0400
0000
3F00
1880
0880
1080
1100
1E00
2100
2100
2100
F080
ENDCHAR
STARTCHAR uni1E59
ENCODING 7769
SWIDTH 402 0
DWIDTH 6 0
BBX 6 9 1 0
BITMAP
10
00
6C
30
20
20
40
40
C0
ENDCHAR
STARTCHAR uni1E5A
ENCODING 7770
SWIDTH 640 0
DWIDTH 9 0
BBX 9 12 0 -2
BITMAP
3F00
1880
0880
1080
1100
1E00
2100
2100
2100
F080
0000
0800
ENDCHAR
STARTCHAR uni1E5B
ENCODING 7771
SWIDTH 402 0
DWIDTH 6 0
BBX 6 9 1 -2
BITMAP
6C
30
20
20
40
40
C0
00
40
ENDCHAR
STARTCHAR uni1E5C
ENCODING 7772
SWIDTH 640 0
DWIDTH 9 0
BBX 9 14 0 -2
BITMAP
1E00
0000
3F00
1880
0880
1080
1100
1E00
2100
2100
2100
F080
0000
0800
ENDCHAR
STARTCHAR uni1E5D
ENCODING 7773
SWIDTH 402 0
DWIDTH 6 0
BBX 6 11 1 -2
BITMAP
78
00
6C
30
20
20
40
40
C0
00
40
ENDCHAR
STARTCHAR uni1E5E
ENCODING 7774
SWIDTH 640 0
DWIDTH 9 0
BBX 9 12 0 -2
BITMAP
3F00
1880
0880
1080
1100
1E00
2100
2100
2100
F080
0000
3C00
ENDCHAR
STARTCHAR uni1E5F
ENCODING 7775
SWIDTH 402 0
DWIDTH 6 0
BBX 6 9 1 -2
BITMAP
6C
30
20
20
40
40
C0
00
F0
ENDCHAR
STARTCHAR uni1E60
ENCODING 7776
SWIDTH 533 0
DWIDTH 7 0
BBX 7 12 1 0
BITMAP
08
00
1C
22
24
20
10
08
04
84
84
78
ENDCHAR
STARTCHAR uni1E61
ENCODING 7777
SWIDTH 389 0
DWIDTH 5 0
BBX 5 9 1 0
BITMAP
20
00
30
48
40
20
10
90
60
ENDCHAR
STARTCHAR uni1E62
ENCODING 7778
SWIDTH 533 0
DWIDTH 7 0
BBX 7 12 1 -2
BITMAP
1C
22
24
20
10
08
04
84
84
78
00
10
ENDCHAR
STARTCHAR uni1E63
ENCODING 7779
SWIDTH 389 0
DWIDTH 5 0
BBX 5 9 1 -2
BITMAP
30
48
40
20
10
90
60
00
20
ENDCHAR
STARTCHAR uni1E64
ENCODING 7780
SWIDTH 533 0
DWIDTH 7 0
BBX 7 16 1 0
BITMAP
08
00
04
08
10
00
1C
22
24
20
10
08
04
84
84
78
ENDCHAR
STARTCHAR uni1E65
ENCODING 7781
SWIDTH 389 0
DWIDTH 5 0
BBX 5 13 1 0
BITMAP
10
00
08
10
20
00
30
48
40
20
10
90
60
ENDCHAR
STARTCHAR uni1E66
ENCODING 7782
SWIDTH 533 0
DWIDTH 7 0
BBX 7 14 1 0
BITMAP
08
00
1E
00
18
66
44
40
30
08
04
84
88
70
ENDCHAR
STARTCHAR uni1E67
ENCODING 7783
SWIDTH 389 0
DWIDTH 5 0
BBX 6 12 1 0
BITMAP
10
00
2C
10
00
30
48
40
20
10
90
60
ENDCHAR
STARTCHAR uni1E68
ENCODING 7784
SWIDTH 533 0
DWIDTH 7 0
BBX 7 14 1 -2
BITMAP
10
00
1C
22
24
20
10
08
04
84
84
78
00
10
ENDCHAR
STARTCHAR uni1E69
ENCODING 7785
SWIDTH 389 0
DWIDTH 5 0
BBX 5 11 1 -2
BITMAP
20
00
30
48
40
20
10
90
60
00
20
ENDCHAR
STARTCHAR uni1E6A
ENCODING 7786
SWIDTH 606 0
DWIDTH 8 0
BBX 9 12 1 0
BITMAP
0800
0000
7F80
4880
8880
0800
0800
1000
1000
1000
1000
7800
ENDCHAR
STARTCHAR uni1E6B
ENCODING 7787
SWIDTH 341 0
DWIDTH 5 0
BBX 4 11 2 0
BITMAP
20
00
20
40
F0
40
40
40
80
A0
C0
ENDCHAR
STARTCHAR uni1E6C
ENCODING 7788
SWIDTH 606 0
DWIDTH 8 0
BBX 9 12 1 -2
BITMAP
7F80
4880
8880
0800
0800
1000
1000
1000
1000
7800
0000
1000
ENDCHAR
STARTCHAR uni1E6D
ENCODING 7789
SWIDTH 341 0
DWIDTH 5 0
BBX 4 11 2 -2
BITMAP
20
40
F0
40
40
40
80
A0
C0
00
40
ENDCHAR
STARTCHAR uni1E6E
ENCODING 7790
SWIDTH 606 0
DWIDTH 8 0
BBX 9 12 1 -2
BITMAP
7F80
4880
8880
0800
0800
1000
1000
1000
1000
7800
0000
3C00
ENDCHAR
STARTCHAR uni1E6F
ENCODING 7791
SWIDTH 341 0
DWIDTH 5 0
BBX 5 11 1 -2
BITMAP
10
20
78
20
20
20
40
50
60
00
F0
ENDCHAR
STARTCHAR uni1E70
ENCODING 7792
SWIDTH 606 0
DWIDTH 8 0
BBX 9 13 1 -3
BITMAP
7F80
4880
8880
0800
0800
1000
1000
1000
1000
7800
0000
1000
6800
ENDCHAR
STARTCHAR uni1E71
ENCODING 7793
SWIDTH 341 0
DWIDTH 5 0
BBX 5 12 1 -3
BITMAP
10
20
78
20
20
20
40
50
60
00
20
D0
ENDCHAR
STARTCHAR uni1E72
ENCODING 7794
SWIDTH 794 0
DWIDTH 11 0
BBX 10 12 2 -2
BITMAP
F3C0
4100
4100
4100
8100
8200
8200
8200
8400
7800
0000
2400
ENDCHAR
STARTCHAR uni1E73
ENCODING 7795
SWIDTH 618 0
DWIDTH 9 0
BBX 7 9 2 -2
BITMAP
C4
44
44
88
98
AA
4C
00
24
ENDCHAR
STARTCHAR uni1E74
ENCODING 7796
SWIDTH 794 0
DWIDTH 11 0
BBX 10 12 2 -2
BITMAP
F3C0
4100
4100
4100
8100
8200
8200
8200
8400
7800
0000
7C00
ENDCHAR
STARTCHAR uni1E75
ENCODING 7797
SWIDTH 618 0
DWIDTH 9 0
BBX 7 9 2 -2
BITMAP
C4
44
44
88
98
AA
4C
00
7C
ENDCHAR
STARTCHAR uni1E76
ENCODING 7798
SWIDTH 794 0
DWIDTH 11 0
BBX 10 13 2 -3
BITMAP
F3C0
4100
4100
4100
8100
8200
8200
8200
8400
7800
0000
1000
6800
ENDCHAR
STARTCHAR uni1E77
ENCODING 7799
SWIDTH 618 0
DWIDTH 9 0
BBX 7 10 2 -3
BITMAP
C4
44
44
88
98
AA
4C
00
10
68
ENDCHAR
STARTCHAR uni1E78
ENCODING 7800
SWIDTH 794 0
DWIDTH 11 0
BBX 10 16 2 0
BITMAP
0200
0400
0800
0000
3E00
0000
F3C0
4100
4100
4100
8100
8200
8200
8200
8400
7800
ENDCHAR
STARTCHAR uni1E79
ENCODING 7801
SWIDTH 618 0
DWIDTH 9 0
BBX 7 13 2 0
BITMAP
08
10
20
00
7C
00
C4
44
44
88
98
AA
4C
ENDCHAR
STARTCHAR uni1E7A
ENCODING 7802
SWIDTH 794 0
DWIDTH 11 0
BBX 10 14 2 0
BITMAP
1200
0000
1E00
0000
F3C0
4100
4100
4100
8100
8200
8200
8200
8400
7800
ENDCHAR
STARTCHAR uni1E7B
ENCODING 7803
SWIDTH 618 0
DWIDTH 9 0
BBX 7 11 2 0
BITMAP
48
00
78
00
C4
44
44
88
98
AA
4C
ENDCHAR
STARTCHAR uni1E7C
ENCODING 7804
SWIDTH 637 0
DWIDTH 9 0
BBX 10 12 2 0
BITMAP
3E00
0000
F1C0
2080
2100
2200
2200
2400
2800
2800
3000
2000
ENDCHAR
STARTCHAR uni1E7D
ENCODING 7805
SWIDTH 510 0
DWIDTH 7 0
BBX 6 9 2 0
BITMAP
F8
00
C4
44
44
88
88
B0
40
ENDCHAR
STARTCHAR uni1E7E
ENCODING 7806
SWIDTH 637 0
DWIDTH 9 0
BBX 10 12 2 -2
BITMAP
F1C0
2080
2100
2200
2200
2400
2800
2800
3000
2000
0000
1000
ENDCHAR
STARTCHAR uni1E7F
ENCODING 7807
SWIDTH 510 0
DWIDTH 7 0
BBX 6 9 2 -2
BITMAP
C4
44
44
88
88
B0
40
00
20
ENDCHAR
STARTCHAR Wgrave
ENCODING 7808
SWIDTH 946 0
DWIDTH 13 0
BBX 14 14 2 0
BITMAP
0400
0200
0100
0000
E01C
4208
4210
4610
4520
4920
4940
5140
3180
2100
ENDCHAR
STARTCHAR wgrave
ENCODING 7809
SWIDTH 785 0
DWIDTH 11 0
BBX 10 11 2 0
BITMAP
1000
0800
0400
0000
C440
4440
4440
8840
9880
AB00
4400
ENDCHAR
STARTCHAR Wacute
ENCODING 7810
SWIDTH 946 0
DWIDTH 13 0
BBX 14 14 2 0
BITMAP
0080
0100
0200
0000
E01C
4208
4210
4610
4520
4920
4940
5140
3180
2100
ENDCHAR
STARTCHAR wacute
ENCODING 7811
SWIDTH 785 0
DWIDTH 11 0
BBX 10 11 2 0
BITMAP
0200
0400
0800
0000
C440
4440
4440
8840
9880
AB00
4400
ENDCHAR
STARTCHAR Wdieresis
ENCODING 7812
SWIDTH 946 0
DWIDTH 13 0
BBX 14 12 2 0
BITMAP
0480
0000
E01C
4208
4210
4610
4520
4920
4940
5140
3180
2100
ENDCHAR
STARTCHAR wdieresis
ENCODING 7813
SWIDTH 785 0
DWIDTH 11 0
BBX 10 9 2 0
BITMAP
1200
0000
C440
4440
4440
8840
9880
AB00
4400
ENDCHAR
STARTCHAR uni1E86
ENCODING 7814
SWIDTH 946 0
DWIDTH 13 0
BBX 14 12 2 0
BITMAP
0200
0000
E01C
4208
4210
4610
4520
4920
4940
5140
3180
2100
ENDCHAR
STARTCHAR uni1E87
ENCODING 7815
SWIDTH 785 0
DWIDTH 11 0
BBX 10 9 2 0
BITMAP
0800
0000
C440
4440
4440
8840
9880
AB00
4400
ENDCHAR
STARTCHAR uni1E88
ENCODING 7816
SWIDTH 946 0
DWIDTH 13 0
BBX 14 12 2 -2
BITMAP
E01C
4208
4210
4610
4520
4920
4940
5140
3180
2100
0000
0400
ENDCHAR
STARTCHAR uni1E89
ENCODING 7817
SWIDTH 785 0
DWIDTH 11 0
BBX 10 9 2 -2
BITMAP
C440
4440
4440
8840
9880
AB00
4400
0000
0800
ENDCHAR
STARTCHAR uni1E8A
ENCODING 7818
SWIDTH 632 0
DWIDTH 9 0
BBX 11 12 0 0
BITMAP
0200
0000
3CE0
0880
0900
0600
0400
0400
0A00
1200
2100
F3C0
ENDCHAR
STARTCHAR uni1E8B
ENCODING 7819
SWIDTH 516 0
DWIDTH 7 0
BBX 8 9 0 0
BITMAP
08
00
33
14
08
08
18
26
C4
ENDCHAR
STARTCHAR uni1E8C
ENCODING 7820
SWIDTH 632 0
DWIDTH 9 0
BBX 11 12 0 0
BITMAP
0900
0000
3CE0
0880
0900
0600
0400
0400
0A00
1200
2100
F3C0
ENDCHAR
STARTCHAR uni1E8D
ENCODING 7821
SWIDTH 516 0
DWIDTH 7 0
BBX 8 9 0 0
BITMAP
12
00
33
14
08
08
18
26
C4
ENDCHAR
STARTCHAR uni1E8E
ENCODING 7822
SWIDTH 591 0
DWIDTH 8 0
BBX 9 12 2 0
BITMAP
0800
0000
E380
4100
2200
2400
2800
1000
2000
2000
2000
F800
ENDCHAR
STARTCHAR uni1E8F
ENCODING 7823
SWIDTH 468 0
DWIDTH 6 0
BBX 7 12 0 -3
BITMAP
08
00
62
12
12
14
14
14
18
10
A0
40
ENDCHAR
STARTCHAR uni1E90
ENCODING 7824
SWIDTH 622 0
DWIDTH 9 0
BBX 10 13 0 0
BITMAP
0200
0D00
0000
1FC0
1080
2100
0200
0400
0800
1000
2080
4100
FF00
ENDCHAR
STARTCHAR uni1E91
ENCODING 7825
SWIDTH 468 0
DWIDTH 6 0
BBX 7 10 1 0
BITMAP
08
34
00
3E
44
08
10
22
64
98
ENDCHAR
STARTCHAR uni1E92
ENCODING 7826
SWIDTH 622 0
DWIDTH 9 0
BBX 10 12 0 -2
BITMAP
1FC0
1080
2100
0200
0400
0800
1000
2080
4100
FF00
0000
0800
ENDCHAR
STARTCHAR uni1E93
ENCODING 7827
SWIDTH 468 0
DWIDTH 6 0
BBX 7 9 1 -2
BITMAP
3E
44
08
10
22
64
98
00
10
ENDCHAR
STARTCHAR uni1E94
ENCODING 7828
SWIDTH 622 0
DWIDTH 9 0
BBX 10 12 0 -2
BITMAP
1FC0
1080
2100
0200
0400
0800
1000
2080
4100
FF00
0000
1E00
ENDCHAR
STARTCHAR uni1E95
ENCODING 7829
SWIDTH 468 0
DWIDTH 6 0
BBX 7 9 1 -2
BITMAP
3E
44
08
10
22
64
98
00
78
ENDCHAR
STARTCHAR uni1E96
ENCODING 7830
SWIDTH 607 0
DWIDTH 8 0
BBX 8 12 1 -2
BITMAP
10
60
20
24
2A
32
22
44
45
C6
00
3C
ENDCHAR
STARTCHAR uni1E97
ENCODING 7831
SWIDTH 341 0
DWIDTH 5 0
BBX 4 11 2 0
BITMAP
90
00
20
40
F0
40
40
40
80
A0
C0
ENDCHAR
STARTCHAR uni1E98
ENCODING 7832
SWIDTH 785 0
DWIDTH 11 0
BBX 10 12 2 0
BITMAP
0800
1400
1400
0800
0000
C440
4440
4440
8840
9880
AB00
4400
ENDCHAR
STARTCHAR uni1E99
ENCODING 7833
SWIDTH 468 0
DWIDTH 6 0
BBX 7 15 0 -3
BITMAP
08
14
14
08
00
62
12
12
14
14
14
18
10
A0
40
ENDCHAR
STARTCHAR uni1EA0
ENCODING 7840
SWIDTH 624 0
DWIDTH 9 0
BBX 9 12 0 -2
BITMAP
0200
0200
0600
0A00
1100
1F00
2100
2100
4100
E380
0000
0800
ENDCHAR
STARTCHAR uni1EA1
ENCODING 7841
SWIDTH 561 0
DWIDTH 8 0
BBX 7 9 1 -2
BITMAP
1C
24
44
88
98
AA
4C
00
10
ENDCHAR
STARTCHAR uni1EA4
ENCODING 7844
SWIDTH 624 0
DWIDTH 9 0
BBX 9 16 0 0
BITMAP
0100
0200
0400
0000
0200
0500
0880
0200
0600
0900
1100
1F00
2100
2100
4100
E380
ENDCHAR
STARTCHAR uni1EA5
ENCODING 7845
SWIDTH 561 0
DWIDTH 8 0
BBX 7 14 1 0
BITMAP
04
08
10
00
08
14
00
1C
24
44
88
98
AA
4C
ENDCHAR
STARTCHAR uni1EA6
ENCODING 7846
SWIDTH 624 0
DWIDTH 9 0
BBX 9 16 0 0
BITMAP
0800
0400
0200
0000
0200
0500
0880
0200
0600
0900
1100
1F00
2100
2100
4100
E380
ENDCHAR
STARTCHAR uni1EA7
ENCODING 7847
SWIDTH 561 0
DWIDTH 8 0
BBX 7 14 1 0
BITMAP
20
10
08
00
08
14
00
1C
24
44
88
98
AA
4C
ENDCHAR
STARTCHAR uni1EAA
ENCODING 7850
SWIDTH 624 0
DWIDTH 9 0
BBX 9 14 0 0
BITMAP
1F00
0000
0200
0500
0880
0200
0600
0900
1100
1F00
2100
2100
4100
E380
ENDCHAR
STARTCHAR uni1EAB
ENCODING 7851
SWIDTH 561 0
DWIDTH 8 0
BBX 7 12 1 0
BITMAP
3E
00
08
14
00
1C
24
44
88
98
AA
4C
ENDCHAR
STARTCHAR uni1EAC
ENCODING 7852
SWIDTH 624 0
DWIDTH 9 0
BBX 9 15 0 -2
BITMAP
0200
0D00
0000
0200
0200
0600
0A00
1100
1F00
2100
2100
4100
E380
0000
0800
ENDCHAR
STARTCHAR uni1EAD
ENCODING 7853
SWIDTH 561 0
DWIDTH 8 0
BBX 7 12 1 -2
BITMAP
08
34
00
1C
24
44
88
98
AA
4C
00
10
ENDCHAR
STARTCHAR uni1EAE
ENCODING 7854
SWIDTH 624 0
DWIDTH 9 0
BBX 9 18 0 0
BITMAP
0100
0200
0400
0000
0900
0900
0600
0000
0200
0200
0600
0A00
1100
1F00
2100
2100
4100
E380
ENDCHAR
STARTCHAR uni1EAF
ENCODING 7855
SWIDTH 561 0
DWIDTH 8 0
BBX 7 15 1 0
BITMAP
04
08
10
00
24
24
18
00
1C
24
44
88
98
AA
4C
ENDCHAR
STARTCHAR uni1EB0
ENCODING 7856
SWIDTH 624 0
DWIDTH 9 0
BBX 9 18 0 0
BITMAP
1000
0800
0400
0000
0900
0900
0600
0000
0200
0200
0600
0A00
1100
1F00
2100
2100
4100
E380
ENDCHAR
STARTCHAR uni1EB1
ENCODING 7857
SWIDTH 561 0
DWIDTH 8 0
BBX 7 15 1 0
BITMAP
20
10
08
00
24
24
18
00
1C
24
44
88
98
AA
4C
ENDCHAR
STARTCHAR uni1EB4
ENCODING 7860
SWIDTH 624 0
DWIDTH 9 0
BBX 9 16 0 0
BITMAP
1F00
0000
0900
0900
0600
0000
0200
0200
0600
0A00
1100
1F00
2100
2100
4100
E380
ENDCHAR
STARTCHAR uni1EB5
ENCODING 7861
SWIDTH 561 0
DWIDTH 8 0
BBX 7 13 1 0
BITMAP
7C
00
24
24
18
00
1C
24
44
88
98
AA
4C
ENDCHAR
STARTCHAR uni1EB6
ENCODING 7862
SWIDTH 624 0
DWIDTH 9 0
BBX 9 16 0 -2
BITMAP
0900
0900
0600
0000
0200
0200
0600
0A00
1100
1F00
2100
2100
4100
E380
0000
0800
ENDCHAR
STARTCHAR uni1EB7
ENCODING 7863
SWIDTH 561 0
DWIDTH 8 0
BBX 7 13 1 -2
BITMAP
24
24
18
00
1C
24
44
88
98
AA
4C
00
10
ENDCHAR
STARTCHAR uni1EB8
ENCODING 7864
SWIDTH 596 0
DWIDTH 8 0
BBX 9 12 0 -2
BITMAP
1F80
0880
0880
0800
1080
0F00
1100
2000
2080
FF00
0000
0800
ENDCHAR
STARTCHAR uni1EB9
ENCODING 7865
SWIDTH 453 0
DWIDTH 6 0
BBX 6 9 1 -2
BITMAP
38
44
4C
F0
80
88
70
00
20
ENDCHAR
STARTCHAR uni1EBC
ENCODING 7868
SWIDTH 596 0
DWIDTH 8 0
BBX 9 12 0 0
BITMAP
1F00
0000
1F80
0880
0880
0800
1080
0F00
1100
2000
2080
FF00
ENDCHAR
STARTCHAR uni1EBD
ENCODING 7869
SWIDTH 453 0
DWIDTH 6 0
BBX 6 9 1 0
BITMAP
7C
00
38
44
4C
F0
80
88
70
ENDCHAR
STARTCHAR uni1EBE
ENCODING 7870
SWIDTH 596 0
DWIDTH 8 0
BBX 9 16 0 0
BITMAP
0100
0200
0400
0000
0200
0500
1F80
0880
0880
0800
1080
0F00
1100
2000
2080
FF00
ENDCHAR
STARTCHAR uni1EBF
ENCODING 7871
SWIDTH 453 0
DWIDTH 6 0
BBX 6 14 1 0
BITMAP
04
08
10
00
08
34
00
38
44
4C
F0
80
88
70
ENDCHAR
STARTCHAR uni1EC0
ENCODING 7872
SWIDTH 596 0
DWIDTH 8 0
BBX 9 16 0 0
BITMAP
1000
0800
0400
0000
0200
0500
1F80
0880
0880
0800
1080
0F00
1100
2000
2080
FF00
ENDCHAR
STARTCHAR uni1EC1
ENCODING 7873
SWIDTH 453 0
DWIDTH 6 0
BBX 6 14 1 0
BITMAP
20
10
08
00
08
34
00
38
44
4C
F0
80
88
70
ENDCHAR
STARTCHAR uni1EC4
ENCODING 7876
SWIDTH 596 0
DWIDTH 8 0
BBX 9 14 0 0
BITMAP
1F00
0000
0200
0500
1F80
0880
0880
0800
1080
0F00
1100
2000
2080
FF00
ENDCHAR
STARTCHAR uni1EC5
ENCODING 7877
SWIDTH 453 0
DWIDTH 6 0
BBX 6 12 1 0
BITMAP
7C
00
08
34
00
38
44
4C
F0
80
88
70
ENDCHAR
STARTCHAR uni1EC6
ENCODING 7878
SWIDTH 596 0
DWIDTH 8 0
BBX 9 15 0 -2
BITMAP
0200
0D00
0000
1F80
0880
0880
0800
1080
0F00
1100
2000
2080
FF00
0000
0800
ENDCHAR
STARTCHAR uni1EC7
ENCODING 7879
SWIDTH 453 0
DWIDTH 6 0
BBX 6 12 1 -2
BITMAP
08
34
00
38
44
4C
F0
80
88
70
00
20
ENDCHAR
STARTCHAR uni1ECA
ENCODING 7882
SWIDTH 345 0
DWIDTH 5 0
BBX 6 12 0 -2
BITMAP
3C
10
10
10
10
20
20
20
20
F0
00
20
ENDCHAR
STARTCHAR uni1ECB
ENCODING 7883
SWIDTH 317 0
DWIDTH 4 0
BBX 3 12 2 -2
BITMAP
20
20
00
E0
40
40
40
80
A0
C0
00
40
ENDCHAR
STARTCHAR uni1ECC
ENCODING 7884
SWIDTH 753 0
DWIDTH 10 0
BBX 9 12 2 -2
BITMAP
1E00
2100
4080
4080
8080
8080
8100
8100
4200
3C00
0000
0800
ENDCHAR
STARTCHAR uni1ECD
ENCODING 7885
SWIDTH 537 0
DWIDTH 7 0
BBX 7 9 1 -2
BITMAP
1C
62
42
82
84
8C
70
00
10
ENDCHAR
STARTCHAR uni1ED0
ENCODING 7888
SWIDTH 753 0
DWIDTH 10 0
BBX 9 16 2 0
BITMAP
0200
0400
0800
0000
0600
0900
1E00
2100
4080
4080
8080
8080
8100
8100
4200
3C00
ENDCHAR
STARTCHAR uni1ED1
ENCODING 7889
SWIDTH 537 0
DWIDTH 7 0
BBX 7 14 1 0
BITMAP
04
08
10
00
0C
32
00
1C
62
42
82
84
8C
70
ENDCHAR
STARTCHAR uni1ED2
ENCODING 7890
SWIDTH 753 0
DWIDTH 10 0
BBX 9 16 2 0
BITMAP
1000
0800
0400
0000
0600
0900
1E00
2100
4080
4080
8080
8080
8100
8100
4200
3C00
ENDCHAR
STARTCHAR uni1ED3
ENCODING 7891
SWIDTH 537 0
DWIDTH 7 0
BBX 7 14 1 0
BITMAP
20
10
08
00
0C
32
00
1C
62
42
82
84
8C
70
ENDCHAR
STARTCHAR uni1ED6
ENCODING 7894
SWIDTH 753 0
DWIDTH 10 0
BBX 9 14 2 0
BITMAP
1F00
0000
0600
0900
1E00
2100
4080
4080
8080
8080
8100
8100
4200
3C00
ENDCHAR
STARTCHAR uni1ED7
ENCODING 7895
SWIDTH 537 0
DWIDTH 7 0
BBX 7 12 1 0
BITMAP
3E
00
0C
32
00
1C
62
42
82
84
8C
70
ENDCHAR
STARTCHAR uni1ED8
ENCODING 7896
SWIDTH 753 0
DWIDTH 10 0
BBX 9 15 2 -2
BITMAP
0400
1A00
0000
1E00
2100
4080
4080
8080
8080
8100
8100
4200
3C00
0000
0800
ENDCHAR
STARTCHAR uni1ED9
ENCODING 7897
SWIDTH 537 0
DWIDTH 7 0
BBX 7 12 1 -2
BITMAP
08
34
00
1C
62
42
82
84
8C
70
00
10
ENDCHAR
STARTCHAR uni1EDA
ENCODING 7898
SWIDTH 753 0
DWIDTH 10 0
BBX 10 14 2 0
BITMAP
0100
0200
0400
0000
1E40
2140
40C0
4080
8080
8080
8100
8100
4200
3C00
ENDCHAR
STARTCHAR uni1EDB
ENCODING 7899
SWIDTH 537 0
DWIDTH 7 0
BBX 9 11 1 0
BITMAP
0200
0400
0800
0000
1C80
6280
4280
8300
8400
8C00
7000
ENDCHAR
STARTCHAR uni1EDC
ENCODING 7900
SWIDTH 753 0
DWIDTH 10 0
BBX 10 14 2 0
BITMAP
0800
0400
0200
0000
1E40
2140
40C0
4080
8080
8080
8100
8100
4200
3C00
ENDCHAR
STARTCHAR uni1EDD
ENCODING 7901
SWIDTH 537 0
DWIDTH 7 0
BBX 9 11 1 0
BITMAP
1000
0800
0400
0000
1C80
6280
4280
8300
8400
8C00
7000
ENDCHAR
STARTCHAR uni1EE0
ENCODING 7904
SWIDTH 753 0
DWIDTH 10 0
BBX 10 12 2 0
BITMAP
1F00
0000
1E40
2140
40C0
4080
8080
8080
8100
8100
4200
3C00
ENDCHAR
STARTCHAR uni1EE1
ENCODING 7905
SWIDTH 537 0
DWIDTH 7 0
BBX 9 9 1 0
BITMAP
3E00
0000
1C80
6280
4280
8300
8400
8C00
7000
ENDCHAR
STARTCHAR uni1EE2
ENCODING 7906
SWIDTH 753 0
DWIDTH 10 0
BBX 10 12 2 -2
BITMAP
1E40
2140
40C0
4080
8080
8080
8100
8100
4200
3C00
0000
0800
ENDCHAR
STARTCHAR uni1EE3
ENCODING 7907
SWIDTH 537 0
DWIDTH 7 0
BBX 9 9 1 -2
BITMAP
1C80
6280
4280
8300
8400
8C00
7000
0000
1000
ENDCHAR
STARTCHAR uni1EE4
ENCODING 7908
SWIDTH 794 0
DWIDTH 11 0
BBX 10 12 2 -2
BITMAP
F3C0
4100
4100
4100
8100
8200
8200
8200
8400
7800
0000
1000
ENDCHAR
STARTCHAR uni1EE5
ENCODING 7909
SWIDTH 618 0
DWIDTH 9 0
BBX 7 9 2 -2
BITMAP
C4
44
44
88
98
AA
4C
00
10
ENDCHAR
STARTCHAR uni1EE8
ENCODING 7912
SWIDTH 794 0
DWIDTH 11 0
BBX 11 14 2 0
BITMAP
0100
0200
0400
0000
F3E0
4120
4120
4140
8100
8200
8200
8200
8400
7800
ENDCHAR
STARTCHAR uni1EE9
ENCODING 7913
SWIDTH 618 0
DWIDTH 9 0
BBX 9 11 2 0
BITMAP
0200
0400
0800
0000
C480
4480
4480
8900
9800
AA00
4C00
ENDCHAR
STARTCHAR uni1EEA
ENCODING 7914
SWIDTH 794 0
DWIDTH 11 0
BBX 11 14 2 0
BITMAP
0800
0400
0200
0000
F3E0
4120
4120
4140
8100
8200
8200
8200
8400
7800
ENDCHAR
STARTCHAR uni1EEB
ENCODING 7915
SWIDTH 618 0
DWIDTH 9 0
BBX 9 11 2 0
BITMAP
2000
1000
0800
0000
C480
4480
4480
8900
9800
AA00
4C00
ENDCHAR
STARTCHAR uni1EEE
ENCODING 7918
SWIDTH 794 0
DWIDTH 11 0
BBX 11 12 2 0
BITMAP
1F00
0000
F3E0
4120
4120
4140
8100
8200
8200
8200
8400
7800
ENDCHAR
STARTCHAR uni1EEF
ENCODING 7919
SWIDTH 618 0
DWIDTH 9 0
BBX 9 9 2 0
BITMAP
3E00
0000
C480
4480
4480
8900
9800
AA00
4C00
ENDCHAR
STARTCHAR uni1EF0
ENCODING 7920
SWIDTH 794 0
DWIDTH 11 0
BBX 11 12 2 -2
BITMAP
F3E0
4120
4120
4140
8100
8200
8200
8200
8400
7800
0000
1000
ENDCHAR
STARTCHAR uni1EF1
ENCODING 7921
SWIDTH 618 0
DWIDTH 9 0
BBX 9 9 2 -2
BITMAP
C480
4480
4480
8900
9800
AA00
4C00
0000
1000
ENDCHAR
STARTCHAR Ygrave
ENCODING 7922
SWIDTH 591 0
DWIDTH 8 0
BBX 9 14 2 0
BITMAP
2000
1000
0800
0000
E380
4100
2200
2400
2800
1000
2000
2000
2000
F800
ENDCHAR
STARTCHAR ygrave
ENCODING 7923
SWIDTH 468 0
DWIDTH 6 0
BBX 7 14 0 -3
BITMAP
20
10
08
00
62
12
12
14
14
14
18
10
A0
40
ENDCHAR
STARTCHAR uni1EF4
ENCODING 7924
SWIDTH 591 0
DWIDTH 8 0
BBX 9 12 2 -2
BITMAP
E380
4100
2200
2400
2800
1000
2000
2000
2000
F800
0000
1000
ENDCHAR
STARTCHAR uni1EF5
ENCODING 7925
SWIDTH 468 0
DWIDTH 6 0
BBX 7 12 0 -5
BITMAP
62
12
12
14
14
14
18
10
A0
40
00
20
ENDCHAR
STARTCHAR uni1EF8
ENCODING 7928
SWIDTH 591 0
DWIDTH 8 0
BBX 9 12 2 0
BITMAP
3E00
0000
E380
4100
2200
2400
2800
1000
2000
2000
2000
F800
ENDCHAR
STARTCHAR uni1EF9
ENCODING 7929
SWIDTH 468 0
DWIDTH 6 0
BBX 7 12 0 -3
BITMAP
3E
00
62
12
12
14
14
14
18
10
A0
40
ENDCHAR
STARTCHAR uni2000
ENCODING 8192
SWIDTH 500 0
DWIDTH 7 0
BBX 1 1 0 0
BITMAP
00
ENDCHAR
STARTCHAR uni2001
ENCODING 8193
SWIDTH 1000 0
DWIDTH 14 0
BBX 1 1 0 0
BITMAP
00
ENDCHAR
STARTCHAR uni2002
ENCODING 8194
SWIDTH 500 0
DWIDTH 7 0
BBX 1 1 0 0
BITMAP
00
ENDCHAR
STARTCHAR uni2003
ENCODING 8195
SWIDTH 1000 0
DWIDTH 14 0
BBX 1 1 0 0
BITMAP
00
ENDCHAR
STARTCHAR uni2004
ENCODING 8196
SWIDTH 333 0
DWIDTH 5 0
BBX 1 1 0 0
BITMAP
00
ENDCHAR
STARTCHAR uni2005
ENCODING 8197
SWIDTH 250 0
DWIDTH 3 0
BBX 1 1 0 0
BITMAP
00
ENDCHAR
STARTCHAR uni2006
ENCODING 8198
SWIDTH 167 0
DWIDTH 2 0
BBX 1 1 0 0
BITMAP
00
ENDCHAR
STARTCHAR uni2007
ENCODING 8199
SWIDTH 530 0
DWIDTH 7 0
BBX 1 1 0 0
BITMAP
00
ENDCHAR
STARTCHAR uni2008
ENCODING 8200
SWIDTH 265 0
DWIDTH 4 0
BBX 1 1 0 0
BITMAP
00
ENDCHAR
STARTCHAR uni2009
ENCODING 8201
SWIDTH 200 0
DWIDTH 3 0
BBX 1 1 0 0
BITMAP
00
ENDCHAR
STARTCHAR uni200A
ENCODING 8202
SWIDTH 100 0
DWIDTH 1 0
BBX 1 1 0 0
BITMAP
00
ENDCHAR
STARTCHAR uni200B
ENCODING 8203
SWIDTH 0 0
DWIDTH 0 0
BBX 1 1 0 0
BITMAP
00
ENDCHAR
STARTCHAR uni2010
ENCODING 8208
SWIDTH 392 0
DWIDTH 5 0
BBX 4 1 1 3
BITMAP
F0
ENDCHAR
STARTCHAR uni2011
ENCODING 8209
SWIDTH 392 0
DWIDTH 5 0
BBX 4 1 1 3
BITMAP
F0
ENDCHAR
STARTCHAR figuredash
ENCODING 8210
SWIDTH 500 0
DWIDTH 7 0
BBX 7 1 1 3
BITMAP
FE
ENDCHAR
STARTCHAR endash
ENCODING 8211
SWIDTH 500 0
DWIDTH 7 0
BBX 7 1 1 3
BITMAP
FE
ENDCHAR
STARTCHAR emdash
ENCODING 8212
SWIDTH 1000 0
DWIDTH 14 0
BBX 14 1 1 3
BITMAP
FFFC
ENDCHAR
STARTCHAR afii00208
ENCODING 8213
SWIDTH 1000 0
DWIDTH 14 0
BBX 14 1 1 3
BITMAP
FFFC
ENDCHAR
STARTCHAR quoteleft
ENCODING 8216
SWIDTH 216 0
DWIDTH 3 0
BBX 2 4 2 7
BITMAP
40
80
80
80
ENDCHAR
STARTCHAR quoteright
ENCODING 8217
SWIDTH 216 0
DWIDTH 3 0
BBX 2 4 2 6
BITMAP
40
40
40
80
ENDCHAR
STARTCHAR quotesinglbase
ENCODING 8218
SWIDTH 216 0
DWIDTH 3 0
BBX 2 4 0 -2
BITMAP
40
40
40
80
ENDCHAR
STARTCHAR quotereversed
ENCODING 8219
SWIDTH 216 0
DWIDTH 3 0
BBX 2 4 2 6
BITMAP
80
80
80
40
ENDCHAR
STARTCHAR quotedblleft
ENCODING 8220
SWIDTH 402 0
DWIDTH 6 0
BBX 5 4 2 7
BITMAP
48
50
D0
90
ENDCHAR
STARTCHAR quotedblright
ENCODING 8221
SWIDTH 402 0
DWIDTH 6 0
BBX 5 4 2 7
BITMAP
48
58
50
90
ENDCHAR
STARTCHAR quotedblbase
ENCODING 8222
SWIDTH 402 0
DWIDTH 6 0
BBX 5 4 0 -2
BITMAP
48
58
50
90
ENDCHAR
STARTCHAR uni201F
ENCODING 8223
SWIDTH 402 0
DWIDTH 6 0
BBX 5 4 2 7
BITMAP
90
D0
50
48
ENDCHAR
STARTCHAR dagger
ENCODING 8224
SWIDTH 500 0
DWIDTH 7 0
BBX 6 12 2 -2
BITMAP
10
10
20
FC
20
20
20
20
40
40
40
40
ENDCHAR
STARTCHAR daggerdbl
ENCODING 8225
SWIDTH 490 0
DWIDTH 7 0
BBX 6 11 1 -1
BITMAP
18
10
10
7C
10
20
20
F8
20
20
40
ENDCHAR
STARTCHAR bullet
ENCODING 8226
SWIDTH 500 0
DWIDTH 7 0
BBX 4 4 2 3
BITMAP
40
70
E0
40
ENDCHAR
STARTCHAR ellipsis
ENCODING 8230
SWIDTH 1000 0
DWIDTH 14 0
BBX 11 1 2 0
BITMAP
8420
ENDCHAR
STARTCHAR perthousand
ENCODING 8240
SWIDTH 1200 0
DWIDTH 17 0
BBX 15 11 2 -1
BITMAP
0180
3E00
5200
9400
9400
690C
1292
24A2
44A4
8318
8000
ENDCHAR
STARTCHAR guilsinglleft
ENCODING 8249
SWIDTH 277 0
DWIDTH 4 0
BBX 3 5 1 1
BITMAP
20
40
80
40
40
ENDCHAR
STARTCHAR guilsinglright
ENCODING 8250
SWIDTH 277 0
DWIDTH 4 0
BBX 3 5 1 1
BITMAP
40
40
20
40
80
ENDCHAR
STARTCHAR fraction
ENCODING 8260
SWIDTH 100 0
DWIDTH 1 0
BBX 8 11 -2 -1
BITMAP
01
02
04
04
08
10
10
20
40
80
80
ENDCHAR
STARTCHAR oneinferior
ENCODING 8321
SWIDTH 370 0
DWIDTH 5 0
BBX 3 5 2 -4
BITMAP
60
20
40
40
E0
ENDCHAR
STARTCHAR twoinferior
ENCODING 8322
SWIDTH 370 0
DWIDTH 5 0
BBX 5 5 1 -4
BITMAP
30
48
10
60
F8
ENDCHAR
STARTCHAR threeinferior
ENCODING 8323
SWIDTH 370 0
DWIDTH 5 0
BBX 5 5 1 -4
BITMAP
70
08
30
90
60
ENDCHAR
STARTCHAR uni20A5
ENCODING 8357
SWIDTH 912 0
DWIDTH 13 0
BBX 12 10 1 -1
BITMAP
0080
0100
6540
2BA0
3320
2220
4440
4450
C460
0800
ENDCHAR
STARTCHAR uni20A6
ENCODING 8358
SWIDTH 763 0
DWIDTH 11 0
BBX 12 10 0 0
BITMAP
3870
1820
1420
3FC0
2240
2240
3FC0
4180
4080
E080
ENDCHAR
STARTCHAR uni20A9
ENCODING 8361
SWIDTH 946 0
DWIDTH 13 0
BBX 14 10 2 0
BITMAP
E01C
4208
4210
4FF0
4520
4920
4FE0
5140
3180
2100
ENDCHAR
STARTCHAR Euro
ENCODING 8364
SWIDTH 661 0
DWIDTH 9 0
BBX 9 10 1 0
BITMAP
0F00
1080
2080
FE00
4000
4000
FE00
4100
2200
1C00
ENDCHAR
STARTCHAR uni20AD
ENCODING 8365
SWIDTH 650 0
DWIDTH 9 0
BBX 11 10 0 0
BITMAP
3DE0
1080
1300
1400
FFE0
2800
2400
2200
2200
F180
ENDCHAR
STARTCHAR uni2103
ENCODING 8451
SWIDTH 1041 0
DWIDTH 15 0
BBX 14 10 2 0
BITMAP
0078
7084
8904
8A00
7200
0200
0200
0208
0110
00E0
ENDCHAR
STARTCHAR uni2109
ENCODING 8457
SWIDTH 951 0
DWIDTH 14 0
BBX 13 10 2 0
BITMAP
01F8
7088
8888
8880
7108
00F0
0110
0200
0200
0F00
ENDCHAR
STARTCHAR trademark
ENCODING 8482
SWIDTH 1100 0
DWIDTH 15 0
BBX 15 6 1 4
BITMAP
FD86
958C
1154
1154
1124
3BAE
ENDCHAR
STARTCHAR uni212A
ENCODING 8490
SWIDTH 650 0
DWIDTH 9 0
BBX 11 10 0 0
BITMAP
3DE0
1080
1300
1400
1800
2800
2400
2200
2200
F180
ENDCHAR
STARTCHAR uni212B
ENCODING 8491
SWIDTH 624 0
DWIDTH 9 0
BBX 9 12 0 0
BITMAP
0200
0500
0200
0200
0600
0A00
1200
1E00
2200
2200
4100
E380
ENDCHAR
STARTCHAR uni2132
ENCODING 8498
SWIDTH 571 0
DWIDTH 8 0
BBX 9 10 0 0
BITMAP
0780
0200
0200
4400
7800
8400
0800
8800
8800
FC00
ENDCHAR
STARTCHAR minus
ENCODING 8722
SWIDTH 570 0
DWIDTH 8 0
BBX 7 1 1 3
BITMAP
FE
ENDCHAR
STARTCHAR fraction
ENCODING 8725
SWIDTH 100 0
DWIDTH 1 0
BBX 8 11 -2 -1
BITMAP
01
02
04
04
08
10
10
20
40
80
80
ENDCHAR
STARTCHAR periodcentered
ENCODING 8729
SWIDTH 265 0
DWIDTH 4 0
BBX 1 1 2 3
BITMAP
80
ENDCHAR
STARTCHAR uni2236
ENCODING 8758
SWIDTH 265 0
DWIDTH 4 0
BBX 3 7 1 0
BITMAP
60
20
00
00
00
C0
80
ENDCHAR
STARTCHAR uni2259
ENCODING 8793
SWIDTH 570 0
DWIDTH 8 0
BBX 7 7 1 1
BITMAP
08
34
00
FE
00
00
FE
ENDCHAR
STARTCHAR uni225A
ENCODING 8794
SWIDTH 570 0
DWIDTH 8 0
BBX 7 7 1 1
BITMAP
2C
10
00
FE
00
00
FE
ENDCHAR
STARTCHAR notequal
ENCODING 8800
SWIDTH 570 0
DWIDTH 8 0
BBX 7 10 1 -2
BITMAP
04
08
08
FE
10
10
FE
20
20
40
ENDCHAR
STARTCHAR equivalence
ENCODING 8801
SWIDTH 570 0
DWIDTH 8 0
BBX 7 5 0 1
BITMAP
FE
00
FE
00
FE
ENDCHAR
STARTCHAR uni2262
ENCODING 8802
SWIDTH 570 0
DWIDTH 8 0
BBX 7 10 0 -1
BITMAP
04
08
08
FE
10
FE
20
FE
20
40
ENDCHAR
STARTCHAR lessequal
ENCODING 8804
SWIDTH 570 0
DWIDTH 8 0
BBX 7 10 1 -3
BITMAP
02
0E
30
40
C0
30
0C
02
00
FE
ENDCHAR
STARTCHAR greaterequal
ENCODING 8805
SWIDTH 570 0
DWIDTH 8 0
BBX 7 10 1 -3
BITMAP
80
E0
18
04
06
18
60
80
00
FE
ENDCHAR
STARTCHAR uni226E
ENCODING 8814
SWIDTH 570 0
DWIDTH 8 0
BBX 7 10 1 -2
BITMAP
04
0A
0E
38
50
D0
30
2C
22
40
ENDCHAR
STARTCHAR uni226F
ENCODING 8815
SWIDTH 570 0
DWIDTH 8 0
BBX 7 10 1 -2
BITMAP
04
88
E8
18
14
16
38
60
A0
40
ENDCHAR
STARTCHAR uni2270
ENCODING 8816
SWIDTH 570 0
DWIDTH 8 0
BBX 7 10 1 -3
BITMAP
06
0E
38
48
D0
30
2C
22
20
FE
ENDCHAR
STARTCHAR uni2271
ENCODING 8817
SWIDTH 570 0
DWIDTH 8 0
BBX 7 10 1 -3
BITMAP
84
E8
18
0C
16
18
60
A0
20
FE
ENDCHAR
STARTCHAR fi
ENCODING -1
SWIDTH 607 0
DWIDTH 8 0
BBX 10 13 -1 -3
BITMAP
0380
0440
0400
1FC0
0880
0880
0880
0900
1140
1180
1000
D000
6000
ENDCHAR
STARTCHAR fl
ENCODING -1
SWIDTH 603 0
DWIDTH 8 0
BBX 10 13 -1 -3
BITMAP
03C0
0440
0440
1E80
0880
0880
0880
1100
1140
1180
1000
A000
4000
ENDCHAR
ENDFONT
